<svg width="168" height="111" viewBox="0 0 168 111" fill="none" xmlns="http://www.w3.org/2000/svg">
<path d="M5.67 97.6685V91.1285L4.062 91.6205V90.2765L6.354 89.2685H7.35V97.6685H5.67Z" fill="#B0BBD5"/>
<path d="M30.7299 97.6685V96.4805C31.2499 96.0725 31.7539 95.6645 32.2419 95.2565C32.7299 94.8485 33.1659 94.4445 33.5499 94.0445C33.9419 93.6365 34.2499 93.2405 34.4739 92.8565C34.7059 92.4725 34.8219 92.1005 34.8219 91.7405C34.8219 91.5165 34.7779 91.3125 34.6899 91.1285C34.6099 90.9365 34.4819 90.7845 34.3059 90.6725C34.1299 90.5525 33.8979 90.4925 33.6099 90.4925C33.3299 90.4925 33.0899 90.5565 32.8899 90.6845C32.6979 90.8125 32.5499 90.9845 32.4459 91.2005C32.3499 91.4085 32.3019 91.6445 32.3019 91.9085H30.7419C30.7579 91.2925 30.8939 90.7765 31.1499 90.3605C31.4139 89.9445 31.7619 89.6365 32.1939 89.4365C32.6339 89.2285 33.1219 89.1245 33.6579 89.1245C34.2499 89.1245 34.7499 89.2365 35.1579 89.4605C35.5739 89.6765 35.8899 89.9725 36.1059 90.3485C36.3299 90.7245 36.4419 91.1565 36.4419 91.6445C36.4419 92.0125 36.3699 92.3725 36.2259 92.7245C36.0899 93.0765 35.9019 93.4205 35.6619 93.7565C35.4299 94.0845 35.1659 94.4005 34.8699 94.7045C34.5739 95.0085 34.2619 95.3005 33.9339 95.5805C33.6059 95.8525 33.2899 96.1085 32.9859 96.3485H36.6339V97.6685H30.7299Z" fill="#B0BBD5"/>
<path d="M61.289 97.8125C60.737 97.8125 60.233 97.7125 59.777 97.5125C59.329 97.3125 58.969 97.0085 58.697 96.6005C58.425 96.1925 58.281 95.6765 58.265 95.0525H59.849C59.857 95.3165 59.917 95.5565 60.029 95.7725C60.141 95.9805 60.301 96.1485 60.509 96.2765C60.725 96.3965 60.985 96.4565 61.289 96.4565C61.569 96.4565 61.809 96.4005 62.009 96.2885C62.209 96.1765 62.361 96.0285 62.465 95.8445C62.569 95.6605 62.621 95.4485 62.621 95.2085C62.621 94.9365 62.549 94.7085 62.405 94.5245C62.269 94.3405 62.077 94.2005 61.829 94.1045C61.589 94.0085 61.313 93.9605 61.001 93.9605H60.377V92.6285H61.001C61.401 92.6285 61.737 92.5365 62.009 92.3525C62.281 92.1605 62.417 91.8765 62.417 91.5005C62.417 91.1965 62.313 90.9525 62.105 90.7685C61.905 90.5845 61.629 90.4925 61.277 90.4925C60.877 90.4925 60.565 90.6045 60.341 90.8285C60.125 91.0525 60.005 91.3285 59.981 91.6565H58.409C58.433 91.1285 58.565 90.6765 58.805 90.3005C59.053 89.9165 59.389 89.6245 59.813 89.4245C60.237 89.2245 60.725 89.1245 61.277 89.1245C61.869 89.1245 62.365 89.2285 62.765 89.4365C63.173 89.6365 63.481 89.9085 63.689 90.2525C63.905 90.5965 64.013 90.9725 64.013 91.3805C64.013 91.7085 63.949 92.0005 63.821 92.2565C63.693 92.5125 63.525 92.7285 63.317 92.9045C63.109 93.0725 62.877 93.1925 62.621 93.2645C62.933 93.3205 63.205 93.4405 63.437 93.6245C63.677 93.8085 63.861 94.0405 63.989 94.3205C64.125 94.5925 64.193 94.9085 64.193 95.2685C64.193 95.7245 64.081 96.1485 63.857 96.5405C63.633 96.9245 63.305 97.2325 62.873 97.4645C62.441 97.6965 61.913 97.8125 61.289 97.8125Z" fill="#B0BBD5"/>
<path d="M85.4778 97.6685V96.1445H81.3498V94.8605L85.2618 89.2685H87.0978V94.7405H88.1898V96.1445H87.0978V97.6685H85.4778ZM83.0778 94.7405H85.5858V91.0565L83.0778 94.7405Z" fill="#B0BBD5"/>
<path d="M111.501 97.8125C110.893 97.8125 110.369 97.7085 109.929 97.5005C109.489 97.2845 109.145 96.9925 108.897 96.6245C108.657 96.2565 108.517 95.8365 108.477 95.3645H110.061C110.117 95.6605 110.273 95.9125 110.529 96.1205C110.785 96.3285 111.109 96.4325 111.501 96.4325C111.789 96.4325 112.041 96.3645 112.257 96.2285C112.473 96.0845 112.637 95.8925 112.749 95.6525C112.869 95.4045 112.929 95.1285 112.929 94.8245C112.929 94.5045 112.869 94.2285 112.749 93.9965C112.629 93.7645 112.465 93.5885 112.257 93.4685C112.049 93.3405 111.809 93.2765 111.537 93.2765C111.209 93.2765 110.925 93.3525 110.685 93.5045C110.445 93.6565 110.269 93.8365 110.157 94.0445H108.585L109.257 89.2685H113.997V90.6845H110.457L110.121 92.5805C110.297 92.3965 110.533 92.2485 110.829 92.1365C111.125 92.0245 111.453 91.9685 111.813 91.9685C112.269 91.9685 112.661 92.0445 112.989 92.1965C113.325 92.3485 113.605 92.5605 113.829 92.8325C114.053 93.0965 114.217 93.4005 114.321 93.7445C114.433 94.0805 114.489 94.4325 114.489 94.8005C114.489 95.2405 114.413 95.6445 114.261 96.0125C114.117 96.3805 113.913 96.7005 113.649 96.9725C113.385 97.2365 113.069 97.4445 112.701 97.5965C112.341 97.7405 111.941 97.8125 111.501 97.8125Z" fill="#B0BBD5"/>
<path d="M136.995 97.8125C136.363 97.8125 135.831 97.6965 135.399 97.4645C134.967 97.2325 134.619 96.9245 134.355 96.5405C134.099 96.1485 133.911 95.7125 133.791 95.2325C133.679 94.7445 133.623 94.2485 133.623 93.7445C133.623 92.8005 133.751 91.9845 134.007 91.2965C134.271 90.6085 134.651 90.0765 135.147 89.7005C135.651 89.3165 136.255 89.1245 136.959 89.1245C137.543 89.1245 138.039 89.2365 138.447 89.4605C138.855 89.6845 139.171 89.9805 139.395 90.3485C139.619 90.7085 139.751 91.0965 139.791 91.5125H138.291C138.219 91.1765 138.067 90.9165 137.835 90.7325C137.603 90.5485 137.303 90.4565 136.935 90.4565C136.591 90.4565 136.291 90.5645 136.035 90.7805C135.779 90.9885 135.583 91.3005 135.447 91.7165C135.311 92.1325 135.231 92.6525 135.207 93.2765C135.207 93.2925 135.207 93.3085 135.207 93.3245C135.207 93.3405 135.207 93.3565 135.207 93.3725C135.327 93.1485 135.491 92.9525 135.699 92.7845C135.907 92.6165 136.147 92.4845 136.419 92.3885C136.691 92.2845 136.975 92.2325 137.271 92.2325C137.743 92.2325 138.175 92.3445 138.567 92.5685C138.967 92.7925 139.287 93.1085 139.527 93.5165C139.767 93.9245 139.887 94.4085 139.887 94.9685C139.887 95.4725 139.763 95.9445 139.515 96.3845C139.275 96.8165 138.939 97.1645 138.507 97.4285C138.075 97.6845 137.571 97.8125 136.995 97.8125ZM136.899 96.4205C137.171 96.4205 137.415 96.3605 137.631 96.2405C137.855 96.1205 138.027 95.9565 138.147 95.7485C138.275 95.5325 138.339 95.2885 138.339 95.0165C138.339 94.7285 138.275 94.4805 138.147 94.2725C138.027 94.0645 137.855 93.9005 137.631 93.7805C137.415 93.6605 137.167 93.6005 136.887 93.6005C136.607 93.6005 136.355 93.6605 136.131 93.7805C135.915 93.9005 135.743 94.0645 135.615 94.2725C135.487 94.4805 135.423 94.7245 135.423 95.0045C135.423 95.2845 135.487 95.5325 135.615 95.7485C135.743 95.9565 135.919 96.1205 136.143 96.2405C136.367 96.3605 136.619 96.4205 136.899 96.4205Z" fill="#B0BBD5"/>
<path d="M162.398 97.6685L165.398 90.6485H161.33V89.2685H167.066V90.4085L164.078 97.6685H162.398Z" fill="#B0BBD5"/>
<path d="M160.056 76.7323L160.056 60.2633C160.056 58.3459 161.611 56.7914 163.528 56.7914V56.7914C165.446 56.7914 167 58.3458 167 60.2633L167 76.7323L160.056 76.7323Z" fill="url(#paint0_linear_31_576)"/>
<path d="M133.769 76.7323L133.769 4.31809C133.769 2.4006 135.323 0.846176 137.241 0.846176V0.846176C139.158 0.846176 140.713 2.40061 140.713 4.31809L140.713 76.7323L133.769 76.7323Z" fill="url(#paint1_linear_31_576)"/>
<path d="M107.978 76.7323L107.978 22.5972C107.978 20.6797 109.532 19.1253 111.449 19.1253V19.1253C113.367 19.1253 114.921 20.6797 114.921 22.5972L114.921 76.7323L107.978 76.7323Z" fill="url(#paint2_linear_31_576)"/>
<path d="M81.6902 76.7323L81.6902 36.999C81.6902 35.0815 83.2446 33.5271 85.1621 33.5271V33.5271C87.0796 33.5271 88.634 35.0815 88.634 36.999L88.634 76.7323L81.6902 76.7323Z" fill="url(#paint3_linear_31_576)"/>
<path d="M55.4026 76.7323L55.4026 11.519C55.4026 9.60147 56.957 8.04704 58.8745 8.04704V8.04704C60.792 8.04704 62.3464 9.60147 62.3464 11.519L62.3464 76.7323L55.4026 76.7323Z" fill="url(#paint4_linear_31_576)"/>
<path d="M29.6113 76.7323L29.6113 45.3077C29.6113 43.3902 31.1658 41.8358 33.0832 41.8358V41.8358C35.0007 41.8358 36.5552 43.3902 36.5552 45.3077L36.5552 76.7323L29.6113 76.7323Z" fill="url(#paint5_linear_31_576)"/>
<path d="M3.32397 76.7322L3.32397 30.9059C3.32397 28.9884 4.8784 27.434 6.79589 27.434V27.434C8.71337 27.434 10.2678 28.9884 10.2678 30.9059L10.2678 76.7322L3.32397 76.7322Z" fill="url(#paint6_linear_31_576)"/>
<defs>
<linearGradient id="paint0_linear_31_576" x1="163.528" y1="57.8992" x2="163.528" y2="76.7323" gradientUnits="userSpaceOnUse">
<stop stop-color="#4318FF"/>
<stop offset="1" stop-color="#4318FF" stop-opacity="0.28"/>
</linearGradient>
<linearGradient id="paint1_linear_31_576" x1="137.241" y1="5.06207" x2="137.241" y2="76.7323" gradientUnits="userSpaceOnUse">
<stop stop-color="#4318FF"/>
<stop offset="1" stop-color="#4318FF" stop-opacity="0.28"/>
</linearGradient>
<linearGradient id="paint2_linear_31_576" x1="111.449" y1="22.3257" x2="111.449" y2="76.7323" gradientUnits="userSpaceOnUse">
<stop stop-color="#4318FF"/>
<stop offset="1" stop-color="#4318FF" stop-opacity="0.28"/>
</linearGradient>
<linearGradient id="paint3_linear_31_576" x1="85.162" y1="35.9273" x2="85.162" y2="76.7323" gradientUnits="userSpaceOnUse">
<stop stop-color="#4318FF"/>
<stop offset="1" stop-color="#4318FF" stop-opacity="0.28"/>
</linearGradient>
<linearGradient id="paint4_linear_31_576" x1="58.8744" y1="11.8629" x2="58.8744" y2="76.7323" gradientUnits="userSpaceOnUse">
<stop stop-color="#4318FF"/>
<stop offset="1" stop-color="#4318FF" stop-opacity="0.28"/>
</linearGradient>
<linearGradient id="paint5_linear_31_576" x1="33.0831" y1="43.7745" x2="33.0832" y2="76.7323" gradientUnits="userSpaceOnUse">
<stop stop-color="#4318FF"/>
<stop offset="1" stop-color="#4318FF" stop-opacity="0.28"/>
</linearGradient>
<linearGradient id="paint6_linear_31_576" x1="6.79579" y1="30.1727" x2="6.7958" y2="76.7322" gradientUnits="userSpaceOnUse">
<stop stop-color="#4318FF"/>
<stop offset="1" stop-color="#4318FF" stop-opacity="0.28"/>
</linearGradient>
</defs>
</svg>
