<svg width="36" height="36" viewBox="0 0 36 36" fill="none" xmlns="http://www.w3.org/2000/svg">
<circle cx="18" cy="18" r="18" fill="#F4F7FE"/>
<g clip-path="url(#clip0_1_362)">
<path d="M20.0893 10.3392H12.4286C11.6625 10.3392 11.0357 10.966 11.0357 11.732V20.7856C11.0357 21.1686 11.3491 21.482 11.7322 21.482C12.1152 21.482 12.4286 21.1686 12.4286 20.7856V12.4285C12.4286 12.0454 12.742 11.732 13.125 11.732H20.0893C20.4723 11.732 20.7857 11.4186 20.7857 11.0356C20.7857 10.6526 20.4723 10.3392 20.0893 10.3392ZM20.5002 13.5358L23.8639 16.8995C24.1216 17.1572 24.2679 17.5124 24.2679 17.8815V24.2677C24.2679 25.0338 23.6411 25.6606 22.875 25.6606H15.2073C14.4413 25.6606 13.8214 25.0338 13.8214 24.2677L13.8284 14.5177C13.8284 13.7517 14.4482 13.1249 15.2143 13.1249H19.5113C19.8804 13.1249 20.2356 13.2711 20.5002 13.5358ZM20.0893 17.9999H23.2232L19.3929 14.1695V17.3035C19.3929 17.6865 19.7063 17.9999 20.0893 17.9999Z" fill="#4318FF"/>
</g>
<defs>
<clipPath id="clip0_1_362">
<rect width="16.7143" height="16.7143" fill="white" transform="translate(9.64276 9.64276)"/>
</clipPath>
</defs>
</svg>
