<svg width="36" height="36" viewBox="0 0 36 36" fill="none" xmlns="http://www.w3.org/2000/svg">
<circle cx="18" cy="18" r="18" fill="#F4F7FE"/>
<g clip-path="url(#clip0_1_318)">
<path d="M17.7899 17.1254C15.793 16.6064 15.1508 16.0698 15.1508 15.2341C15.1508 14.2752 16.0393 13.6067 17.526 13.6067C18.7752 13.6067 19.3997 14.0817 19.6284 14.8382C19.734 15.1901 20.0243 15.454 20.3938 15.454H20.6577C21.2383 15.454 21.6517 14.8822 21.4494 14.3368C21.0799 13.2988 20.2178 12.4367 18.8455 12.1024V11.4954C18.8455 10.7653 18.2561 10.1759 17.526 10.1759C16.7959 10.1759 16.2065 10.7653 16.2065 11.4954V12.076C14.4999 12.4455 13.1276 13.5539 13.1276 15.2517C13.1276 17.2838 14.8078 18.2954 17.2621 18.8848C19.4613 19.4126 19.9012 20.1867 19.9012 21.0049C19.9012 21.6118 19.4701 22.5795 17.526 22.5795C16.0745 22.5795 15.3268 22.0605 15.0365 21.3215C14.9045 20.9785 14.6054 20.7322 14.2448 20.7322H13.9985C13.4091 20.7322 12.9956 21.3303 13.2155 21.8757C13.717 23.0985 14.8869 23.8199 16.2065 24.1014V24.6907C16.2065 25.4209 16.7959 26.0103 17.526 26.0103C18.2561 26.0103 18.8455 25.4209 18.8455 24.6907V24.1189C20.5609 23.7935 21.9244 22.7994 21.9244 20.9961C21.9244 18.4977 19.7868 17.6444 17.7899 17.1254Z" fill="#4318FF"/>
</g>
<defs>
<clipPath id="clip0_1_318">
<rect width="21.1125" height="21.1125" fill="white" transform="translate(7.4097 7.53687)"/>
</clipPath>
</defs>
</svg>
