<svg width="48" height="48" viewBox="0 0 48 48" fill="none" xmlns="http://www.w3.org/2000/svg">
<rect width="48" height="48" rx="15" fill="#FEEFEE"/>
<g clip-path="url(#clip0_1_592)">
<path d="M32.7267 24.4083C30.895 19.6483 24.3733 19.3916 25.9483 12.4733C26.065 11.96 25.5167 11.5633 25.0733 11.8316C20.8383 14.3283 17.7933 19.3333 20.3483 25.89C20.5583 26.4266 19.9283 26.9283 19.4733 26.5783C17.3617 24.98 17.14 22.6816 17.3267 21.0366C17.3967 20.43 16.6033 20.1383 16.265 20.64C15.4717 21.8533 14.6667 23.8133 14.6667 26.765C15.11 33.2983 20.6283 35.305 22.6117 35.5616C25.4467 35.9233 28.515 35.3983 30.72 33.38C33.1467 31.1283 34.0333 27.535 32.7267 24.4083ZM21.9 30.2766C23.58 29.8683 24.4433 28.655 24.6767 27.5816C25.0617 25.9133 23.5567 24.28 24.5717 21.6433C24.9567 23.825 28.3867 25.19 28.3867 27.57C28.48 30.5216 25.2833 33.0533 21.9 30.2766Z" fill="#EE5D50"/>
</g>
<defs>
<clipPath id="clip0_1_592">
<rect width="28" height="28" fill="white" transform="translate(10 10)"/>
</clipPath>
</defs>
</svg>
