<svg width="36" height="36" viewBox="0 0 36 36" fill="none" xmlns="http://www.w3.org/2000/svg">
<circle cx="18" cy="18" r="18" fill="#F4F7FE"/>
<g clip-path="url(#clip0_1_308)">
<path d="M13.0397 15.6301H13.2156C13.893 15.6301 14.4472 16.1843 14.4472 16.8616V23.0194C14.4472 23.6968 13.893 24.251 13.2156 24.251H13.0397C12.3623 24.251 11.8081 23.6968 11.8081 23.0194V16.8616C11.8081 16.1843 12.3623 15.6301 13.0397 15.6301ZM17.9659 11.9354C18.6433 11.9354 19.1975 12.4896 19.1975 13.1669V23.0194C19.1975 23.6968 18.6433 24.251 17.9659 24.251C17.2886 24.251 16.7344 23.6968 16.7344 23.0194V13.1669C16.7344 12.4896 17.2886 11.9354 17.9659 11.9354ZM22.8922 18.9729C23.5696 18.9729 24.1238 19.5271 24.1238 20.2044V23.0194C24.1238 23.6968 23.5696 24.251 22.8922 24.251C22.2148 24.251 21.6606 23.6968 21.6606 23.0194V20.2044C21.6606 19.5271 22.2148 18.9729 22.8922 18.9729Z" fill="#4318FF"/>
</g>
<defs>
<clipPath id="clip0_1_308">
<rect width="21.1125" height="21.1125" fill="white" transform="translate(7.40981 7.53693)"/>
</clipPath>
</defs>
</svg>
