<svg width="238" height="186" viewBox="0 0 238 186" fill="none" xmlns="http://www.w3.org/2000/svg">
<g filter="url(#filter0_d_33_577)">
<g clip-path="url(#clip0_33_577)">
<rect x="40" y="108" width="170" height="38" rx="15" fill="white"/>
<line x1="124.5" y1="152" x2="124.5" y2="112" stroke="#F4F7FE"/>
<path d="M69.988 123V119.904L67.204 114.6H68.644L70.624 118.656L72.592 114.6H74.02L71.26 119.904V123H69.988ZM76.5121 123.144C75.9441 123.144 75.4321 123.016 74.9761 122.76C74.5281 122.496 74.1721 122.132 73.9081 121.668C73.6441 121.196 73.5121 120.648 73.5121 120.024C73.5121 119.4 73.6441 118.856 73.9081 118.392C74.1801 117.92 74.5441 117.556 75.0001 117.3C75.4561 117.036 75.9641 116.904 76.5241 116.904C77.0921 116.904 77.6001 117.036 78.0481 117.3C78.5041 117.556 78.8641 117.92 79.1281 118.392C79.4001 118.856 79.5361 119.4 79.5361 120.024C79.5361 120.648 79.4001 121.196 79.1281 121.668C78.8641 122.132 78.5041 122.496 78.0481 122.76C77.5921 123.016 77.0801 123.144 76.5121 123.144ZM76.5121 122.052C76.8161 122.052 77.0961 121.976 77.3521 121.824C77.6161 121.672 77.8281 121.448 77.9881 121.152C78.1481 120.848 78.2281 120.472 78.2281 120.024C78.2281 119.576 78.1481 119.204 77.9881 118.908C77.8361 118.604 77.6281 118.376 77.3641 118.224C77.1081 118.072 76.8281 117.996 76.5241 117.996C76.2201 117.996 75.9361 118.072 75.6721 118.224C75.4161 118.376 75.2081 118.604 75.0481 118.908C74.8881 119.204 74.8081 119.576 74.8081 120.024C74.8081 120.472 74.8881 120.848 75.0481 121.152C75.2081 121.448 75.4161 121.672 75.6721 121.824C75.9281 121.976 76.2081 122.052 76.5121 122.052ZM82.8677 123.144C82.1477 123.144 81.5797 122.92 81.1637 122.472C80.7557 122.024 80.5517 121.356 80.5517 120.468V117.048H81.8237V120.336C81.8237 121.488 82.2957 122.064 83.2397 122.064C83.7117 122.064 84.0997 121.896 84.4037 121.56C84.7077 121.224 84.8597 120.744 84.8597 120.12V117.048H86.1317V123H85.0037L84.9077 121.956C84.7237 122.324 84.4517 122.616 84.0917 122.832C83.7397 123.04 83.3317 123.144 82.8677 123.144ZM87.5098 123V117.048H88.6498L88.7578 118.176C88.9658 117.784 89.2538 117.476 89.6218 117.252C89.9978 117.02 90.4498 116.904 90.9778 116.904V118.236H90.6298C90.2778 118.236 89.9618 118.296 89.6818 118.416C89.4098 118.528 89.1898 118.724 89.0218 119.004C88.8618 119.276 88.7818 119.656 88.7818 120.144V123H87.5098ZM94.9118 123V118.116H94.0598V117.048H94.9118V116.184C94.9118 115.536 95.0718 115.072 95.3918 114.792C95.7198 114.504 96.1798 114.36 96.7718 114.36H97.3958V115.44H96.9638C96.6838 115.44 96.4838 115.5 96.3638 115.62C96.2438 115.732 96.1838 115.924 96.1838 116.196V117.048H99.9518V123H98.6798V118.116H96.1838V123H94.9118ZM99.3278 116.052C99.0878 116.052 98.8878 115.98 98.7278 115.836C98.5758 115.684 98.4998 115.492 98.4998 115.26C98.4998 115.036 98.5758 114.852 98.7278 114.708C98.8878 114.564 99.0878 114.492 99.3278 114.492C99.5678 114.492 99.7638 114.564 99.9158 114.708C100.076 114.852 100.156 115.036 100.156 115.26C100.156 115.492 100.076 115.684 99.9158 115.836C99.7638 115.98 99.5678 116.052 99.3278 116.052ZM101.403 123V114.36H102.675V123H101.403ZM106.83 123.144C106.246 123.144 105.726 123.016 105.27 122.76C104.822 122.496 104.47 122.132 104.214 121.668C103.958 121.204 103.83 120.664 103.83 120.048C103.83 119.424 103.954 118.876 104.202 118.404C104.458 117.932 104.81 117.564 105.258 117.3C105.714 117.036 106.242 116.904 106.842 116.904C107.426 116.904 107.934 117.036 108.366 117.3C108.798 117.556 109.134 117.9 109.374 118.332C109.614 118.764 109.734 119.24 109.734 119.76C109.734 119.84 109.73 119.928 109.722 120.024C109.722 120.112 109.718 120.212 109.71 120.324H105.078C105.118 120.9 105.306 121.34 105.642 121.644C105.986 121.94 106.382 122.088 106.83 122.088C107.19 122.088 107.49 122.008 107.73 121.848C107.978 121.68 108.162 121.456 108.282 121.176H109.554C109.394 121.736 109.074 122.204 108.594 122.58C108.122 122.956 107.534 123.144 106.83 123.144ZM106.83 117.948C106.406 117.948 106.03 118.076 105.702 118.332C105.374 118.58 105.174 118.956 105.102 119.46H108.462C108.438 118.996 108.274 118.628 107.97 118.356C107.666 118.084 107.286 117.948 106.83 117.948ZM113.19 123.144C112.438 123.144 111.818 122.96 111.33 122.592C110.842 122.224 110.562 121.736 110.49 121.128H111.774C111.838 121.4 111.99 121.636 112.23 121.836C112.47 122.028 112.786 122.124 113.178 122.124C113.562 122.124 113.842 122.044 114.018 121.884C114.194 121.724 114.282 121.54 114.282 121.332C114.282 121.028 114.158 120.824 113.91 120.72C113.67 120.608 113.334 120.508 112.902 120.42C112.566 120.348 112.23 120.252 111.894 120.132C111.566 120.012 111.29 119.844 111.066 119.628C110.85 119.404 110.742 119.104 110.742 118.728C110.742 118.208 110.942 117.776 111.342 117.432C111.742 117.08 112.302 116.904 113.022 116.904C113.686 116.904 114.222 117.064 114.63 117.384C115.046 117.704 115.29 118.156 115.362 118.74H114.138C114.098 118.484 113.978 118.284 113.778 118.14C113.586 117.996 113.326 117.924 112.998 117.924C112.678 117.924 112.43 117.992 112.254 118.128C112.078 118.256 111.99 118.424 111.99 118.632C111.99 118.84 112.11 119.004 112.35 119.124C112.598 119.244 112.922 119.352 113.322 119.448C113.722 119.536 114.09 119.64 114.426 119.76C114.77 119.872 115.046 120.04 115.254 120.264C115.462 120.488 115.566 120.816 115.566 121.248C115.574 121.792 115.362 122.244 114.93 122.604C114.506 122.964 113.926 123.144 113.19 123.144Z" fill="#A3AED0"/>
<path d="M71.648 137.168C70.9107 137.168 70.2853 137.033 69.772 136.762C69.268 136.491 68.862 136.127 68.554 135.67C68.2553 135.213 68.036 134.704 67.896 134.144C67.7653 133.575 67.7 133.001 67.7 132.422C67.7 131.321 67.854 130.369 68.162 129.566C68.47 128.763 68.9133 128.143 69.492 127.704C70.0707 127.256 70.7707 127.032 71.592 127.032C72.2827 127.032 72.866 127.167 73.342 127.438C73.818 127.699 74.1867 128.045 74.448 128.474C74.7093 128.903 74.8633 129.365 74.91 129.86H73.146C73.0713 129.449 72.8987 129.137 72.628 128.922C72.3573 128.698 72.0073 128.586 71.578 128.586C71.1767 128.586 70.8267 128.707 70.528 128.95C70.2293 129.193 69.996 129.557 69.828 130.042C69.6693 130.527 69.576 131.139 69.548 131.876C69.548 131.885 69.548 131.899 69.548 131.918C69.548 131.937 69.548 131.951 69.548 131.96C69.6973 131.708 69.8933 131.484 70.136 131.288C70.3787 131.092 70.6587 130.938 70.976 130.826C71.2933 130.714 71.6293 130.658 71.984 130.658C72.5253 130.658 73.0293 130.789 73.496 131.05C73.9627 131.311 74.3407 131.68 74.63 132.156C74.9193 132.632 75.064 133.197 75.064 133.85C75.064 134.438 74.9193 134.989 74.63 135.502C74.35 136.006 73.9533 136.412 73.44 136.72C72.9267 137.019 72.3293 137.168 71.648 137.168ZM71.536 135.544C71.872 135.544 72.166 135.474 72.418 135.334C72.6793 135.194 72.8847 135.003 73.034 134.76C73.1833 134.508 73.258 134.223 73.258 133.906C73.258 133.57 73.1833 133.281 73.034 133.038C72.8847 132.795 72.6793 132.604 72.418 132.464C72.1567 132.324 71.858 132.254 71.522 132.254C71.1953 132.254 70.9013 132.324 70.64 132.464C70.3787 132.604 70.1687 132.8 70.01 133.052C69.8607 133.295 69.786 133.575 69.786 133.892C69.786 134.219 69.8607 134.508 70.01 134.76C70.1687 135.003 70.3787 135.194 70.64 135.334C70.9107 135.474 71.2093 135.544 71.536 135.544ZM79.793 137.168C79.1584 137.168 78.575 137.051 78.043 136.818C77.511 136.585 77.0864 136.23 76.769 135.754C76.4517 135.278 76.2837 134.676 76.265 133.948H78.113C78.1224 134.256 78.1924 134.536 78.323 134.788C78.4537 135.031 78.645 135.227 78.897 135.376C79.149 135.516 79.4477 135.586 79.793 135.586C80.1197 135.586 80.3997 135.521 80.633 135.39C80.8664 135.259 81.0437 135.087 81.165 134.872C81.2864 134.657 81.347 134.41 81.347 134.13C81.347 133.803 81.263 133.533 81.095 133.318C80.9364 133.094 80.7124 132.926 80.423 132.814C80.143 132.702 79.821 132.646 79.457 132.646H78.729V131.092H79.457C79.9144 131.092 80.297 130.985 80.605 130.77C80.9224 130.555 81.081 130.233 81.081 129.804C81.081 129.449 80.9644 129.165 80.731 128.95C80.507 128.735 80.1897 128.628 79.779 128.628C79.331 128.628 78.981 128.759 78.729 129.02C78.477 129.281 78.337 129.603 78.309 129.986H76.461C76.489 129.37 76.643 128.843 76.923 128.404C77.2124 127.956 77.5997 127.615 78.085 127.382C78.5704 127.149 79.135 127.032 79.779 127.032C80.4604 127.032 81.0344 127.153 81.501 127.396C81.977 127.629 82.3364 127.947 82.579 128.348C82.8217 128.749 82.943 129.183 82.943 129.65C82.943 130.033 82.8684 130.373 82.719 130.672C82.579 130.971 82.3877 131.218 82.145 131.414C81.9024 131.61 81.6364 131.75 81.347 131.834C81.711 131.909 82.0284 132.053 82.299 132.268C82.579 132.473 82.7937 132.739 82.943 133.066C83.1017 133.393 83.181 133.771 83.181 134.2C83.181 134.732 83.0504 135.227 82.789 135.684C82.537 136.132 82.1544 136.491 81.641 136.762C81.137 137.033 80.521 137.168 79.793 137.168ZM86.2709 137L91.7729 127.2H93.6069L88.1049 137H86.2709ZM93.2709 137.168C92.8136 137.168 92.3982 137.07 92.0249 136.874C91.6609 136.669 91.3716 136.379 91.1569 136.006C90.9422 135.623 90.8349 135.175 90.8349 134.662C90.8349 134.139 90.9422 133.691 91.1569 133.318C91.3716 132.945 91.6609 132.66 92.0249 132.464C92.3982 132.259 92.8136 132.156 93.2709 132.156C93.7282 132.156 94.1389 132.259 94.5029 132.464C94.8669 132.66 95.1562 132.945 95.3709 133.318C95.5856 133.691 95.6929 134.139 95.6929 134.662C95.6929 135.175 95.5856 135.623 95.3709 136.006C95.1562 136.379 94.8669 136.669 94.5029 136.874C94.1389 137.07 93.7282 137.168 93.2709 137.168ZM93.2569 135.866C93.4436 135.866 93.6069 135.819 93.7469 135.726C93.8869 135.633 93.9989 135.497 94.0829 135.32C94.1669 135.143 94.2089 134.923 94.2089 134.662C94.2089 134.391 94.1669 134.167 94.0829 133.99C94.0082 133.803 93.8962 133.663 93.7469 133.57C93.6069 133.477 93.4436 133.43 93.2569 133.43C93.0796 133.43 92.9162 133.477 92.7669 133.57C92.6269 133.663 92.5149 133.803 92.4309 133.99C92.3469 134.167 92.3049 134.391 92.3049 134.662C92.3049 134.923 92.3469 135.143 92.4309 135.32C92.5149 135.497 92.6269 135.633 92.7669 135.726C92.9162 135.819 93.0796 135.866 93.2569 135.866ZM86.6769 132.058C86.2289 132.058 85.8182 131.955 85.4449 131.75C85.0809 131.545 84.7869 131.255 84.5629 130.882C84.3482 130.509 84.2409 130.065 84.2409 129.552C84.2409 129.02 84.3482 128.572 84.5629 128.208C84.7869 127.835 85.0809 127.545 85.4449 127.34C85.8182 127.135 86.2336 127.032 86.6909 127.032C87.1482 127.032 87.5542 127.135 87.9089 127.34C88.2729 127.545 88.5622 127.835 88.7769 128.208C89.0009 128.572 89.1129 129.02 89.1129 129.552C89.1129 130.065 89.0009 130.509 88.7769 130.882C88.5622 131.255 88.2729 131.545 87.9089 131.75C87.5449 131.955 87.1342 132.058 86.6769 132.058ZM86.6769 130.756C86.8542 130.756 87.0129 130.709 87.1529 130.616C87.3022 130.523 87.4189 130.387 87.5029 130.21C87.5869 130.033 87.6289 129.813 87.6289 129.552C87.6289 129.272 87.5869 129.043 87.5029 128.866C87.4189 128.689 87.3022 128.553 87.1529 128.46C87.0129 128.367 86.8542 128.32 86.6769 128.32C86.4996 128.32 86.3362 128.367 86.1869 128.46C86.0469 128.553 85.9349 128.693 85.8509 128.88C85.7669 129.057 85.7249 129.281 85.7249 129.552C85.7249 129.813 85.7669 130.033 85.8509 130.21C85.9349 130.387 86.0469 130.523 86.1869 130.616C86.3362 130.709 86.4996 130.756 86.6769 130.756Z" fill="#2B3674"/>
<circle cx="58" cy="119" r="4" fill="#4318FF"/>
<path d="M152.624 123.144C152.008 123.144 151.468 123.036 151.004 122.82C150.54 122.604 150.176 122.296 149.912 121.896C149.656 121.496 149.524 121.02 149.516 120.468H150.86C150.868 120.916 151.024 121.296 151.328 121.608C151.632 121.92 152.06 122.076 152.612 122.076C153.1 122.076 153.48 121.96 153.752 121.728C154.032 121.488 154.172 121.184 154.172 120.816C154.172 120.52 154.104 120.28 153.968 120.096C153.84 119.912 153.66 119.76 153.428 119.64C153.204 119.52 152.944 119.412 152.648 119.316C152.352 119.22 152.04 119.116 151.712 119.004C151.064 118.788 150.576 118.508 150.248 118.164C149.928 117.82 149.768 117.368 149.768 116.808C149.76 116.336 149.868 115.924 150.092 115.572C150.324 115.22 150.644 114.948 151.052 114.756C151.468 114.556 151.952 114.456 152.504 114.456C153.048 114.456 153.524 114.556 153.932 114.756C154.348 114.956 154.672 115.236 154.904 115.596C155.136 115.948 155.256 116.36 155.264 116.832H153.92C153.92 116.616 153.864 116.412 153.752 116.22C153.64 116.02 153.476 115.856 153.26 115.728C153.044 115.6 152.78 115.536 152.468 115.536C152.068 115.528 151.736 115.628 151.472 115.836C151.216 116.044 151.088 116.332 151.088 116.7C151.088 117.028 151.184 117.28 151.376 117.456C151.568 117.632 151.832 117.78 152.168 117.9C152.504 118.012 152.888 118.144 153.32 118.296C153.736 118.432 154.108 118.596 154.436 118.788C154.764 118.98 155.024 119.232 155.216 119.544C155.416 119.856 155.516 120.252 155.516 120.732C155.516 121.156 155.408 121.552 155.192 121.92C154.976 122.28 154.652 122.576 154.22 122.808C153.788 123.032 153.256 123.144 152.624 123.144ZM157.315 125.64L158.743 122.508H158.395L156.043 117.048H157.423L159.247 121.452L161.155 117.048H162.499L158.659 125.64H157.315ZM165.364 123.144C164.612 123.144 163.992 122.96 163.504 122.592C163.016 122.224 162.736 121.736 162.664 121.128H163.948C164.012 121.4 164.164 121.636 164.404 121.836C164.644 122.028 164.96 122.124 165.352 122.124C165.736 122.124 166.016 122.044 166.192 121.884C166.368 121.724 166.456 121.54 166.456 121.332C166.456 121.028 166.332 120.824 166.084 120.72C165.844 120.608 165.508 120.508 165.076 120.42C164.74 120.348 164.404 120.252 164.068 120.132C163.74 120.012 163.464 119.844 163.24 119.628C163.024 119.404 162.916 119.104 162.916 118.728C162.916 118.208 163.116 117.776 163.516 117.432C163.916 117.08 164.476 116.904 165.196 116.904C165.86 116.904 166.396 117.064 166.804 117.384C167.22 117.704 167.464 118.156 167.536 118.74H166.312C166.272 118.484 166.152 118.284 165.952 118.14C165.76 117.996 165.5 117.924 165.172 117.924C164.852 117.924 164.604 117.992 164.428 118.128C164.252 118.256 164.164 118.424 164.164 118.632C164.164 118.84 164.284 119.004 164.524 119.124C164.772 119.244 165.096 119.352 165.496 119.448C165.896 119.536 166.264 119.64 166.6 119.76C166.944 119.872 167.22 120.04 167.428 120.264C167.636 120.488 167.74 120.816 167.74 121.248C167.748 121.792 167.536 122.244 167.104 122.604C166.68 122.964 166.1 123.144 165.364 123.144ZM171.162 123C170.578 123 170.114 122.86 169.77 122.58C169.426 122.292 169.254 121.784 169.254 121.056V118.116H168.234V117.048H169.254L169.41 115.536H170.526V117.048H172.206V118.116H170.526V121.056C170.526 121.384 170.594 121.612 170.73 121.74C170.874 121.86 171.118 121.92 171.462 121.92H172.146V123H171.162ZM175.909 123.144C175.325 123.144 174.805 123.016 174.349 122.76C173.901 122.496 173.549 122.132 173.293 121.668C173.037 121.204 172.909 120.664 172.909 120.048C172.909 119.424 173.033 118.876 173.281 118.404C173.537 117.932 173.889 117.564 174.337 117.3C174.793 117.036 175.321 116.904 175.921 116.904C176.505 116.904 177.013 117.036 177.445 117.3C177.877 117.556 178.213 117.9 178.453 118.332C178.693 118.764 178.813 119.24 178.813 119.76C178.813 119.84 178.809 119.928 178.801 120.024C178.801 120.112 178.797 120.212 178.789 120.324H174.157C174.197 120.9 174.385 121.34 174.721 121.644C175.065 121.94 175.461 122.088 175.909 122.088C176.269 122.088 176.569 122.008 176.809 121.848C177.057 121.68 177.241 121.456 177.361 121.176H178.633C178.473 121.736 178.153 122.204 177.673 122.58C177.201 122.956 176.613 123.144 175.909 123.144ZM175.909 117.948C175.485 117.948 175.109 118.076 174.781 118.332C174.453 118.58 174.253 118.956 174.181 119.46H177.541C177.517 118.996 177.353 118.628 177.049 118.356C176.745 118.084 176.365 117.948 175.909 117.948ZM179.893 123V117.048H181.021L181.129 117.888C181.321 117.584 181.573 117.344 181.885 117.168C182.205 116.992 182.573 116.904 182.989 116.904C183.933 116.904 184.589 117.276 184.957 118.02C185.173 117.676 185.461 117.404 185.821 117.204C186.189 117.004 186.585 116.904 187.009 116.904C187.753 116.904 188.337 117.128 188.761 117.576C189.185 118.024 189.397 118.692 189.397 119.58V123H188.125V119.712C188.125 118.56 187.685 117.984 186.805 117.984C186.357 117.984 185.989 118.152 185.701 118.488C185.421 118.824 185.281 119.304 185.281 119.928V123H184.009V119.712C184.009 118.56 183.565 117.984 182.677 117.984C182.237 117.984 181.873 118.152 181.585 118.488C181.305 118.824 181.165 119.304 181.165 119.928V123H179.893Z" fill="#A3AED0"/>
<path d="M149.7 137V135.614C150.297 135.138 150.876 134.662 151.436 134.186C152.005 133.71 152.514 133.239 152.962 132.772C153.41 132.296 153.765 131.834 154.026 131.386C154.287 130.938 154.418 130.504 154.418 130.084C154.418 129.823 154.371 129.585 154.278 129.37C154.185 129.146 154.035 128.969 153.83 128.838C153.634 128.698 153.373 128.628 153.046 128.628C152.719 128.628 152.444 128.703 152.22 128.852C151.996 129.001 151.828 129.202 151.716 129.454C151.604 129.697 151.548 129.972 151.548 130.28H149.714C149.742 129.561 149.905 128.959 150.204 128.474C150.503 127.989 150.904 127.629 151.408 127.396C151.912 127.153 152.477 127.032 153.102 127.032C153.793 127.032 154.376 127.163 154.852 127.424C155.328 127.676 155.687 128.021 155.93 128.46C156.182 128.899 156.308 129.403 156.308 129.972C156.308 130.401 156.229 130.821 156.07 131.232C155.921 131.643 155.706 132.044 155.426 132.436C155.155 132.819 154.847 133.187 154.502 133.542C154.157 133.897 153.797 134.237 153.424 134.564C153.051 134.881 152.687 135.18 152.332 135.46H156.546V137H149.7ZM161.266 137.168C160.557 137.168 159.941 137.042 159.418 136.79C158.905 136.538 158.503 136.193 158.214 135.754C157.925 135.315 157.757 134.816 157.71 134.256H159.558C159.623 134.62 159.81 134.928 160.118 135.18C160.426 135.432 160.813 135.558 161.28 135.558C161.616 135.558 161.91 135.474 162.162 135.306C162.414 135.138 162.61 134.914 162.75 134.634C162.89 134.345 162.96 134.018 162.96 133.654C162.96 133.281 162.885 132.959 162.736 132.688C162.596 132.417 162.4 132.207 162.148 132.058C161.905 131.909 161.625 131.834 161.308 131.834C160.907 131.834 160.561 131.932 160.272 132.128C159.992 132.315 159.791 132.543 159.67 132.814H157.836L158.648 127.2H164.15V128.852H160.048L159.642 131.036C159.847 130.821 160.123 130.649 160.468 130.518C160.813 130.378 161.201 130.308 161.63 130.308C162.162 130.308 162.624 130.401 163.016 130.588C163.408 130.765 163.735 131.013 163.996 131.33C164.257 131.638 164.453 131.993 164.584 132.394C164.715 132.786 164.78 133.201 164.78 133.64C164.78 134.153 164.691 134.625 164.514 135.054C164.346 135.483 164.103 135.857 163.786 136.174C163.478 136.491 163.109 136.739 162.68 136.916C162.26 137.084 161.789 137.168 161.266 137.168ZM167.847 137L173.349 127.2H175.183L169.681 137H167.847ZM174.847 137.168C174.39 137.168 173.974 137.07 173.601 136.874C173.237 136.669 172.948 136.379 172.733 136.006C172.518 135.623 172.411 135.175 172.411 134.662C172.411 134.139 172.518 133.691 172.733 133.318C172.948 132.945 173.237 132.66 173.601 132.464C173.974 132.259 174.39 132.156 174.847 132.156C175.304 132.156 175.715 132.259 176.079 132.464C176.443 132.66 176.732 132.945 176.947 133.318C177.162 133.691 177.269 134.139 177.269 134.662C177.269 135.175 177.162 135.623 176.947 136.006C176.732 136.379 176.443 136.669 176.079 136.874C175.715 137.07 175.304 137.168 174.847 137.168ZM174.833 135.866C175.02 135.866 175.183 135.819 175.323 135.726C175.463 135.633 175.575 135.497 175.659 135.32C175.743 135.143 175.785 134.923 175.785 134.662C175.785 134.391 175.743 134.167 175.659 133.99C175.584 133.803 175.472 133.663 175.323 133.57C175.183 133.477 175.02 133.43 174.833 133.43C174.656 133.43 174.492 133.477 174.343 133.57C174.203 133.663 174.091 133.803 174.007 133.99C173.923 134.167 173.881 134.391 173.881 134.662C173.881 134.923 173.923 135.143 174.007 135.32C174.091 135.497 174.203 135.633 174.343 135.726C174.492 135.819 174.656 135.866 174.833 135.866ZM168.253 132.058C167.805 132.058 167.394 131.955 167.021 131.75C166.657 131.545 166.363 131.255 166.139 130.882C165.924 130.509 165.817 130.065 165.817 129.552C165.817 129.02 165.924 128.572 166.139 128.208C166.363 127.835 166.657 127.545 167.021 127.34C167.394 127.135 167.81 127.032 168.267 127.032C168.724 127.032 169.13 127.135 169.485 127.34C169.849 127.545 170.138 127.835 170.353 128.208C170.577 128.572 170.689 129.02 170.689 129.552C170.689 130.065 170.577 130.509 170.353 130.882C170.138 131.255 169.849 131.545 169.485 131.75C169.121 131.955 168.71 132.058 168.253 132.058ZM168.253 130.756C168.43 130.756 168.589 130.709 168.729 130.616C168.878 130.523 168.995 130.387 169.079 130.21C169.163 130.033 169.205 129.813 169.205 129.552C169.205 129.272 169.163 129.043 169.079 128.866C168.995 128.689 168.878 128.553 168.729 128.46C168.589 128.367 168.43 128.32 168.253 128.32C168.076 128.32 167.912 128.367 167.763 128.46C167.623 128.553 167.511 128.693 167.427 128.88C167.343 129.057 167.301 129.281 167.301 129.552C167.301 129.813 167.343 130.033 167.427 130.21C167.511 130.387 167.623 130.523 167.763 130.616C167.912 130.709 168.076 130.756 168.253 130.756Z" fill="#2B3674"/>
<circle cx="140" cy="119" r="4" fill="#6AD2FF"/>
</g>
<rect x="40.25" y="108.25" width="169.5" height="37.5" rx="14.75" stroke="#F4F7FE" stroke-width="0.5"/>
</g>
<circle cx="124.5" cy="50.5001" r="50.5002" transform="rotate(-90 124.5 50.5001)" fill="#EFF4FB"/>
<path d="M124.5 -1.58651e-05C134.761 -1.4438e-05 144.779 3.12585 153.219 8.96135C161.66 14.7968 168.122 23.0651 171.746 32.665C175.37 42.2649 175.984 52.7411 173.505 62.6984C171.026 72.6558 165.573 81.6218 157.872 88.4026C150.17 95.1835 140.586 99.4573 130.395 100.655C120.204 101.853 109.89 99.9177 100.826 95.1074C91.7623 90.297 84.3789 82.8396 79.6591 73.7283C74.9394 64.617 73.1072 54.2841 74.4065 44.1055L124.5 50.5001L124.5 -1.58651e-05Z" fill="#6AD2FF"/>
<path d="M124.5 -1.58651e-05C132.28 -1.47831e-05 139.955 1.79752 146.926 5.25236C153.896 8.70719 159.975 13.7259 164.686 19.9169C169.398 26.1079 172.615 33.3038 174.088 40.9432C175.56 48.5826 175.247 56.4588 173.174 63.9575C171.101 71.4561 167.323 78.3743 162.136 84.1724C156.948 89.9705 150.491 94.4916 143.269 97.3831C136.046 100.275 128.253 101.458 120.497 100.841C112.742 100.225 105.234 97.8246 98.5588 93.8281L124.5 50.5001L124.5 -1.58651e-05Z" fill="#4318FF"/>
<defs>
<filter id="filter0_d_33_577" x="0" y="68" width="250" height="118" filterUnits="userSpaceOnUse" color-interpolation-filters="sRGB">
<feFlood flood-opacity="0" result="BackgroundImageFix"/>
<feColorMatrix in="SourceAlpha" type="matrix" values="0 0 0 0 0 0 0 0 0 0 0 0 0 0 0 0 0 0 127 0" result="hardAlpha"/>
<feOffset/>
<feGaussianBlur stdDeviation="20"/>
<feColorMatrix type="matrix" values="0 0 0 0 0.439216 0 0 0 0 0.564706 0 0 0 0 0.690196 0 0 0 0.12 0"/>
<feBlend mode="normal" in2="BackgroundImageFix" result="effect1_dropShadow_33_577"/>
<feBlend mode="normal" in="SourceGraphic" in2="effect1_dropShadow_33_577" result="shape"/>
</filter>
<clipPath id="clip0_33_577">
<rect x="40" y="108" width="170" height="38" rx="15" fill="white"/>
</clipPath>
</defs>
</svg>
