<svg width="170" height="146" viewBox="0 0 170 146" fill="none" xmlns="http://www.w3.org/2000/svg">
<g clip-path="url(#clip0_187_456)">
<rect y="108" width="170" height="38" rx="15" fill="white"/>
<line x1="84.5" y1="152" x2="84.5" y2="112" stroke="#F4F7FE"/>
<path d="M29.988 123V119.904L27.204 114.6H28.644L30.624 118.656L32.592 114.6H34.02L31.26 119.904V123H29.988ZM36.5121 123.144C35.9441 123.144 35.4321 123.016 34.9761 122.76C34.5281 122.496 34.1721 122.132 33.9081 121.668C33.6441 121.196 33.5121 120.648 33.5121 120.024C33.5121 119.4 33.6441 118.856 33.9081 118.392C34.1801 117.92 34.5441 117.556 35.0001 117.3C35.4561 117.036 35.9641 116.904 36.5241 116.904C37.0921 116.904 37.6001 117.036 38.0481 117.3C38.5041 117.556 38.8641 117.92 39.1281 118.392C39.4001 118.856 39.5361 119.4 39.5361 120.024C39.5361 120.648 39.4001 121.196 39.1281 121.668C38.8641 122.132 38.5041 122.496 38.0481 122.76C37.5921 123.016 37.0801 123.144 36.5121 123.144ZM36.5121 122.052C36.8161 122.052 37.0961 121.976 37.3521 121.824C37.6161 121.672 37.8281 121.448 37.9881 121.152C38.1481 120.848 38.2281 120.472 38.2281 120.024C38.2281 119.576 38.1481 119.204 37.9881 118.908C37.8361 118.604 37.6281 118.376 37.3641 118.224C37.1081 118.072 36.8281 117.996 36.5241 117.996C36.2201 117.996 35.9361 118.072 35.6721 118.224C35.4161 118.376 35.2081 118.604 35.0481 118.908C34.8881 119.204 34.8081 119.576 34.8081 120.024C34.8081 120.472 34.8881 120.848 35.0481 121.152C35.2081 121.448 35.4161 121.672 35.6721 121.824C35.9281 121.976 36.2081 122.052 36.5121 122.052ZM42.8677 123.144C42.1477 123.144 41.5797 122.92 41.1637 122.472C40.7557 122.024 40.5517 121.356 40.5517 120.468V117.048H41.8237V120.336C41.8237 121.488 42.2957 122.064 43.2397 122.064C43.7117 122.064 44.0997 121.896 44.4037 121.56C44.7077 121.224 44.8597 120.744 44.8597 120.12V117.048H46.1317V123H45.0037L44.9077 121.956C44.7237 122.324 44.4517 122.616 44.0917 122.832C43.7397 123.04 43.3317 123.144 42.8677 123.144ZM47.5098 123V117.048H48.6498L48.7578 118.176C48.9658 117.784 49.2538 117.476 49.6218 117.252C49.9978 117.02 50.4498 116.904 50.9778 116.904V118.236H50.6298C50.2778 118.236 49.9618 118.296 49.6818 118.416C49.4098 118.528 49.1898 118.724 49.0218 119.004C48.8618 119.276 48.7818 119.656 48.7818 120.144V123H47.5098ZM54.9118 123V118.116H54.0598V117.048H54.9118V116.184C54.9118 115.536 55.0718 115.072 55.3918 114.792C55.7198 114.504 56.1798 114.36 56.7718 114.36H57.3958V115.44H56.9638C56.6838 115.44 56.4838 115.5 56.3638 115.62C56.2438 115.732 56.1838 115.924 56.1838 116.196V117.048H59.9518V123H58.6798V118.116H56.1838V123H54.9118ZM59.3278 116.052C59.0878 116.052 58.8878 115.98 58.7278 115.836C58.5758 115.684 58.4998 115.492 58.4998 115.26C58.4998 115.036 58.5758 114.852 58.7278 114.708C58.8878 114.564 59.0878 114.492 59.3278 114.492C59.5678 114.492 59.7638 114.564 59.9158 114.708C60.0758 114.852 60.1558 115.036 60.1558 115.26C60.1558 115.492 60.0758 115.684 59.9158 115.836C59.7638 115.98 59.5678 116.052 59.3278 116.052ZM61.4031 123V114.36H62.6751V123H61.4031ZM66.8299 123.144C66.2459 123.144 65.7259 123.016 65.2699 122.76C64.8219 122.496 64.4699 122.132 64.2139 121.668C63.9579 121.204 63.8299 120.664 63.8299 120.048C63.8299 119.424 63.9539 118.876 64.2019 118.404C64.4579 117.932 64.8099 117.564 65.2579 117.3C65.7139 117.036 66.2419 116.904 66.8419 116.904C67.4259 116.904 67.9339 117.036 68.3659 117.3C68.7979 117.556 69.1339 117.9 69.3739 118.332C69.6139 118.764 69.7339 119.24 69.7339 119.76C69.7339 119.84 69.7299 119.928 69.7219 120.024C69.7219 120.112 69.7179 120.212 69.7099 120.324H65.0779C65.1179 120.9 65.3059 121.34 65.6419 121.644C65.9859 121.94 66.3819 122.088 66.8299 122.088C67.1899 122.088 67.4899 122.008 67.7299 121.848C67.9779 121.68 68.1619 121.456 68.2819 121.176H69.5539C69.3939 121.736 69.0739 122.204 68.5939 122.58C68.1219 122.956 67.5339 123.144 66.8299 123.144ZM66.8299 117.948C66.4059 117.948 66.0299 118.076 65.7019 118.332C65.3739 118.58 65.1739 118.956 65.1019 119.46H68.4619C68.4379 118.996 68.2739 118.628 67.9699 118.356C67.6659 118.084 67.2859 117.948 66.8299 117.948ZM73.1897 123.144C72.4377 123.144 71.8177 122.96 71.3297 122.592C70.8417 122.224 70.5617 121.736 70.4897 121.128H71.7737C71.8377 121.4 71.9897 121.636 72.2297 121.836C72.4697 122.028 72.7857 122.124 73.1777 122.124C73.5617 122.124 73.8417 122.044 74.0177 121.884C74.1937 121.724 74.2817 121.54 74.2817 121.332C74.2817 121.028 74.1577 120.824 73.9097 120.72C73.6697 120.608 73.3337 120.508 72.9017 120.42C72.5657 120.348 72.2297 120.252 71.8937 120.132C71.5657 120.012 71.2897 119.844 71.0657 119.628C70.8497 119.404 70.7417 119.104 70.7417 118.728C70.7417 118.208 70.9417 117.776 71.3417 117.432C71.7417 117.08 72.3017 116.904 73.0217 116.904C73.6857 116.904 74.2217 117.064 74.6297 117.384C75.0457 117.704 75.2897 118.156 75.3617 118.74H74.1377C74.0977 118.484 73.9777 118.284 73.7777 118.14C73.5857 117.996 73.3257 117.924 72.9977 117.924C72.6777 117.924 72.4297 117.992 72.2537 118.128C72.0777 118.256 71.9897 118.424 71.9897 118.632C71.9897 118.84 72.1097 119.004 72.3497 119.124C72.5977 119.244 72.9217 119.352 73.3217 119.448C73.7217 119.536 74.0897 119.64 74.4257 119.76C74.7697 119.872 75.0457 120.04 75.2537 120.264C75.4617 120.488 75.5657 120.816 75.5657 121.248C75.5737 121.792 75.3617 122.244 74.9297 122.604C74.5057 122.964 73.9257 123.144 73.1897 123.144Z" fill="#A3AED0"/>
<path d="M31.648 137.168C30.9107 137.168 30.2853 137.033 29.772 136.762C29.268 136.491 28.862 136.127 28.554 135.67C28.2553 135.213 28.036 134.704 27.896 134.144C27.7653 133.575 27.7 133.001 27.7 132.422C27.7 131.321 27.854 130.369 28.162 129.566C28.47 128.763 28.9133 128.143 29.492 127.704C30.0707 127.256 30.7707 127.032 31.592 127.032C32.2827 127.032 32.866 127.167 33.342 127.438C33.818 127.699 34.1867 128.045 34.448 128.474C34.7093 128.903 34.8633 129.365 34.91 129.86H33.146C33.0713 129.449 32.8987 129.137 32.628 128.922C32.3573 128.698 32.0073 128.586 31.578 128.586C31.1767 128.586 30.8267 128.707 30.528 128.95C30.2293 129.193 29.996 129.557 29.828 130.042C29.6693 130.527 29.576 131.139 29.548 131.876C29.548 131.885 29.548 131.899 29.548 131.918C29.548 131.937 29.548 131.951 29.548 131.96C29.6973 131.708 29.8933 131.484 30.136 131.288C30.3787 131.092 30.6587 130.938 30.976 130.826C31.2933 130.714 31.6293 130.658 31.984 130.658C32.5253 130.658 33.0293 130.789 33.496 131.05C33.9627 131.311 34.3407 131.68 34.63 132.156C34.9193 132.632 35.064 133.197 35.064 133.85C35.064 134.438 34.9193 134.989 34.63 135.502C34.35 136.006 33.9533 136.412 33.44 136.72C32.9267 137.019 32.3293 137.168 31.648 137.168ZM31.536 135.544C31.872 135.544 32.166 135.474 32.418 135.334C32.6793 135.194 32.8847 135.003 33.034 134.76C33.1833 134.508 33.258 134.223 33.258 133.906C33.258 133.57 33.1833 133.281 33.034 133.038C32.8847 132.795 32.6793 132.604 32.418 132.464C32.1567 132.324 31.858 132.254 31.522 132.254C31.1953 132.254 30.9013 132.324 30.64 132.464C30.3787 132.604 30.1687 132.8 30.01 133.052C29.8607 133.295 29.786 133.575 29.786 133.892C29.786 134.219 29.8607 134.508 30.01 134.76C30.1687 135.003 30.3787 135.194 30.64 135.334C30.9107 135.474 31.2093 135.544 31.536 135.544ZM39.793 137.168C39.1584 137.168 38.575 137.051 38.043 136.818C37.511 136.585 37.0864 136.23 36.769 135.754C36.4517 135.278 36.2837 134.676 36.265 133.948H38.113C38.1224 134.256 38.1924 134.536 38.323 134.788C38.4537 135.031 38.645 135.227 38.897 135.376C39.149 135.516 39.4477 135.586 39.793 135.586C40.1197 135.586 40.3997 135.521 40.633 135.39C40.8664 135.259 41.0437 135.087 41.165 134.872C41.2864 134.657 41.347 134.41 41.347 134.13C41.347 133.803 41.263 133.533 41.095 133.318C40.9364 133.094 40.7124 132.926 40.423 132.814C40.143 132.702 39.821 132.646 39.457 132.646H38.729V131.092H39.457C39.9144 131.092 40.297 130.985 40.605 130.77C40.9224 130.555 41.081 130.233 41.081 129.804C41.081 129.449 40.9644 129.165 40.731 128.95C40.507 128.735 40.1897 128.628 39.779 128.628C39.331 128.628 38.981 128.759 38.729 129.02C38.477 129.281 38.337 129.603 38.309 129.986H36.461C36.489 129.37 36.643 128.843 36.923 128.404C37.2124 127.956 37.5997 127.615 38.085 127.382C38.5704 127.149 39.135 127.032 39.779 127.032C40.4604 127.032 41.0344 127.153 41.501 127.396C41.977 127.629 42.3364 127.947 42.579 128.348C42.8217 128.749 42.943 129.183 42.943 129.65C42.943 130.033 42.8684 130.373 42.719 130.672C42.579 130.971 42.3877 131.218 42.145 131.414C41.9024 131.61 41.6364 131.75 41.347 131.834C41.711 131.909 42.0284 132.053 42.299 132.268C42.579 132.473 42.7937 132.739 42.943 133.066C43.1017 133.393 43.181 133.771 43.181 134.2C43.181 134.732 43.0504 135.227 42.789 135.684C42.537 136.132 42.1544 136.491 41.641 136.762C41.137 137.033 40.521 137.168 39.793 137.168ZM46.2709 137L51.7729 127.2H53.6069L48.1049 137H46.2709ZM53.2709 137.168C52.8136 137.168 52.3982 137.07 52.0249 136.874C51.6609 136.669 51.3716 136.379 51.1569 136.006C50.9422 135.623 50.8349 135.175 50.8349 134.662C50.8349 134.139 50.9422 133.691 51.1569 133.318C51.3716 132.945 51.6609 132.66 52.0249 132.464C52.3982 132.259 52.8136 132.156 53.2709 132.156C53.7282 132.156 54.1389 132.259 54.5029 132.464C54.8669 132.66 55.1562 132.945 55.3709 133.318C55.5856 133.691 55.6929 134.139 55.6929 134.662C55.6929 135.175 55.5856 135.623 55.3709 136.006C55.1562 136.379 54.8669 136.669 54.5029 136.874C54.1389 137.07 53.7282 137.168 53.2709 137.168ZM53.2569 135.866C53.4436 135.866 53.6069 135.819 53.7469 135.726C53.8869 135.633 53.9989 135.497 54.0829 135.32C54.1669 135.143 54.2089 134.923 54.2089 134.662C54.2089 134.391 54.1669 134.167 54.0829 133.99C54.0082 133.803 53.8962 133.663 53.7469 133.57C53.6069 133.477 53.4436 133.43 53.2569 133.43C53.0796 133.43 52.9162 133.477 52.7669 133.57C52.6269 133.663 52.5149 133.803 52.4309 133.99C52.3469 134.167 52.3049 134.391 52.3049 134.662C52.3049 134.923 52.3469 135.143 52.4309 135.32C52.5149 135.497 52.6269 135.633 52.7669 135.726C52.9162 135.819 53.0796 135.866 53.2569 135.866ZM46.6769 132.058C46.2289 132.058 45.8182 131.955 45.4449 131.75C45.0809 131.545 44.7869 131.255 44.5629 130.882C44.3482 130.509 44.2409 130.065 44.2409 129.552C44.2409 129.02 44.3482 128.572 44.5629 128.208C44.7869 127.835 45.0809 127.545 45.4449 127.34C45.8182 127.135 46.2336 127.032 46.6909 127.032C47.1482 127.032 47.5542 127.135 47.9089 127.34C48.2729 127.545 48.5622 127.835 48.7769 128.208C49.0009 128.572 49.1129 129.02 49.1129 129.552C49.1129 130.065 49.0009 130.509 48.7769 130.882C48.5622 131.255 48.2729 131.545 47.9089 131.75C47.5449 131.955 47.1342 132.058 46.6769 132.058ZM46.6769 130.756C46.8542 130.756 47.0129 130.709 47.1529 130.616C47.3022 130.523 47.4189 130.387 47.5029 130.21C47.5869 130.033 47.6289 129.813 47.6289 129.552C47.6289 129.272 47.5869 129.043 47.5029 128.866C47.4189 128.689 47.3022 128.553 47.1529 128.46C47.0129 128.367 46.8542 128.32 46.6769 128.32C46.4996 128.32 46.3362 128.367 46.1869 128.46C46.0469 128.553 45.9349 128.693 45.8509 128.88C45.7669 129.057 45.7249 129.281 45.7249 129.552C45.7249 129.813 45.7669 130.033 45.8509 130.21C45.9349 130.387 46.0469 130.523 46.1869 130.616C46.3362 130.709 46.4996 130.756 46.6769 130.756Z" fill="#2B3674"/>
<circle cx="18" cy="119" r="4" fill="#4318FF"/>
<path d="M112.624 123.144C112.008 123.144 111.468 123.036 111.004 122.82C110.54 122.604 110.176 122.296 109.912 121.896C109.656 121.496 109.524 121.02 109.516 120.468H110.86C110.868 120.916 111.024 121.296 111.328 121.608C111.632 121.92 112.06 122.076 112.612 122.076C113.1 122.076 113.48 121.96 113.752 121.728C114.032 121.488 114.172 121.184 114.172 120.816C114.172 120.52 114.104 120.28 113.968 120.096C113.84 119.912 113.66 119.76 113.428 119.64C113.204 119.52 112.944 119.412 112.648 119.316C112.352 119.22 112.04 119.116 111.712 119.004C111.064 118.788 110.576 118.508 110.248 118.164C109.928 117.82 109.768 117.368 109.768 116.808C109.76 116.336 109.868 115.924 110.092 115.572C110.324 115.22 110.644 114.948 111.052 114.756C111.468 114.556 111.952 114.456 112.504 114.456C113.048 114.456 113.524 114.556 113.932 114.756C114.348 114.956 114.672 115.236 114.904 115.596C115.136 115.948 115.256 116.36 115.264 116.832H113.92C113.92 116.616 113.864 116.412 113.752 116.22C113.64 116.02 113.476 115.856 113.26 115.728C113.044 115.6 112.78 115.536 112.468 115.536C112.068 115.528 111.736 115.628 111.472 115.836C111.216 116.044 111.088 116.332 111.088 116.7C111.088 117.028 111.184 117.28 111.376 117.456C111.568 117.632 111.832 117.78 112.168 117.9C112.504 118.012 112.888 118.144 113.32 118.296C113.736 118.432 114.108 118.596 114.436 118.788C114.764 118.98 115.024 119.232 115.216 119.544C115.416 119.856 115.516 120.252 115.516 120.732C115.516 121.156 115.408 121.552 115.192 121.92C114.976 122.28 114.652 122.576 114.22 122.808C113.788 123.032 113.256 123.144 112.624 123.144ZM117.315 125.64L118.743 122.508H118.395L116.043 117.048H117.423L119.247 121.452L121.155 117.048H122.499L118.659 125.64H117.315ZM125.364 123.144C124.612 123.144 123.992 122.96 123.504 122.592C123.016 122.224 122.736 121.736 122.664 121.128H123.948C124.012 121.4 124.164 121.636 124.404 121.836C124.644 122.028 124.96 122.124 125.352 122.124C125.736 122.124 126.016 122.044 126.192 121.884C126.368 121.724 126.456 121.54 126.456 121.332C126.456 121.028 126.332 120.824 126.084 120.72C125.844 120.608 125.508 120.508 125.076 120.42C124.74 120.348 124.404 120.252 124.068 120.132C123.74 120.012 123.464 119.844 123.24 119.628C123.024 119.404 122.916 119.104 122.916 118.728C122.916 118.208 123.116 117.776 123.516 117.432C123.916 117.08 124.476 116.904 125.196 116.904C125.86 116.904 126.396 117.064 126.804 117.384C127.22 117.704 127.464 118.156 127.536 118.74H126.312C126.272 118.484 126.152 118.284 125.952 118.14C125.76 117.996 125.5 117.924 125.172 117.924C124.852 117.924 124.604 117.992 124.428 118.128C124.252 118.256 124.164 118.424 124.164 118.632C124.164 118.84 124.284 119.004 124.524 119.124C124.772 119.244 125.096 119.352 125.496 119.448C125.896 119.536 126.264 119.64 126.6 119.76C126.944 119.872 127.22 120.04 127.428 120.264C127.636 120.488 127.74 120.816 127.74 121.248C127.748 121.792 127.536 122.244 127.104 122.604C126.68 122.964 126.1 123.144 125.364 123.144ZM131.162 123C130.578 123 130.114 122.86 129.77 122.58C129.426 122.292 129.254 121.784 129.254 121.056V118.116H128.234V117.048H129.254L129.41 115.536H130.526V117.048H132.206V118.116H130.526V121.056C130.526 121.384 130.594 121.612 130.73 121.74C130.874 121.86 131.118 121.92 131.462 121.92H132.146V123H131.162ZM135.909 123.144C135.325 123.144 134.805 123.016 134.349 122.76C133.901 122.496 133.549 122.132 133.293 121.668C133.037 121.204 132.909 120.664 132.909 120.048C132.909 119.424 133.033 118.876 133.281 118.404C133.537 117.932 133.889 117.564 134.337 117.3C134.793 117.036 135.321 116.904 135.921 116.904C136.505 116.904 137.013 117.036 137.445 117.3C137.877 117.556 138.213 117.9 138.453 118.332C138.693 118.764 138.813 119.24 138.813 119.76C138.813 119.84 138.809 119.928 138.801 120.024C138.801 120.112 138.797 120.212 138.789 120.324H134.157C134.197 120.9 134.385 121.34 134.721 121.644C135.065 121.94 135.461 122.088 135.909 122.088C136.269 122.088 136.569 122.008 136.809 121.848C137.057 121.68 137.241 121.456 137.361 121.176H138.633C138.473 121.736 138.153 122.204 137.673 122.58C137.201 122.956 136.613 123.144 135.909 123.144ZM135.909 117.948C135.485 117.948 135.109 118.076 134.781 118.332C134.453 118.58 134.253 118.956 134.181 119.46H137.541C137.517 118.996 137.353 118.628 137.049 118.356C136.745 118.084 136.365 117.948 135.909 117.948ZM139.893 123V117.048H141.021L141.129 117.888C141.321 117.584 141.573 117.344 141.885 117.168C142.205 116.992 142.573 116.904 142.989 116.904C143.933 116.904 144.589 117.276 144.957 118.02C145.173 117.676 145.461 117.404 145.821 117.204C146.189 117.004 146.585 116.904 147.009 116.904C147.753 116.904 148.337 117.128 148.761 117.576C149.185 118.024 149.397 118.692 149.397 119.58V123H148.125V119.712C148.125 118.56 147.685 117.984 146.805 117.984C146.357 117.984 145.989 118.152 145.701 118.488C145.421 118.824 145.281 119.304 145.281 119.928V123H144.009V119.712C144.009 118.56 143.565 117.984 142.677 117.984C142.237 117.984 141.873 118.152 141.585 118.488C141.305 118.824 141.165 119.304 141.165 119.928V123H139.893Z" fill="#A3AED0"/>
<path d="M109.7 137V135.614C110.297 135.138 110.876 134.662 111.436 134.186C112.005 133.71 112.514 133.239 112.962 132.772C113.41 132.296 113.765 131.834 114.026 131.386C114.287 130.938 114.418 130.504 114.418 130.084C114.418 129.823 114.371 129.585 114.278 129.37C114.185 129.146 114.035 128.969 113.83 128.838C113.634 128.698 113.373 128.628 113.046 128.628C112.719 128.628 112.444 128.703 112.22 128.852C111.996 129.001 111.828 129.202 111.716 129.454C111.604 129.697 111.548 129.972 111.548 130.28H109.714C109.742 129.561 109.905 128.959 110.204 128.474C110.503 127.989 110.904 127.629 111.408 127.396C111.912 127.153 112.477 127.032 113.102 127.032C113.793 127.032 114.376 127.163 114.852 127.424C115.328 127.676 115.687 128.021 115.93 128.46C116.182 128.899 116.308 129.403 116.308 129.972C116.308 130.401 116.229 130.821 116.07 131.232C115.921 131.643 115.706 132.044 115.426 132.436C115.155 132.819 114.847 133.187 114.502 133.542C114.157 133.897 113.797 134.237 113.424 134.564C113.051 134.881 112.687 135.18 112.332 135.46H116.546V137H109.7ZM121.266 137.168C120.557 137.168 119.941 137.042 119.418 136.79C118.905 136.538 118.503 136.193 118.214 135.754C117.925 135.315 117.757 134.816 117.71 134.256H119.558C119.623 134.62 119.81 134.928 120.118 135.18C120.426 135.432 120.813 135.558 121.28 135.558C121.616 135.558 121.91 135.474 122.162 135.306C122.414 135.138 122.61 134.914 122.75 134.634C122.89 134.345 122.96 134.018 122.96 133.654C122.96 133.281 122.885 132.959 122.736 132.688C122.596 132.417 122.4 132.207 122.148 132.058C121.905 131.909 121.625 131.834 121.308 131.834C120.907 131.834 120.561 131.932 120.272 132.128C119.992 132.315 119.791 132.543 119.67 132.814H117.836L118.648 127.2H124.15V128.852H120.048L119.642 131.036C119.847 130.821 120.123 130.649 120.468 130.518C120.813 130.378 121.201 130.308 121.63 130.308C122.162 130.308 122.624 130.401 123.016 130.588C123.408 130.765 123.735 131.013 123.996 131.33C124.257 131.638 124.453 131.993 124.584 132.394C124.715 132.786 124.78 133.201 124.78 133.64C124.78 134.153 124.691 134.625 124.514 135.054C124.346 135.483 124.103 135.857 123.786 136.174C123.478 136.491 123.109 136.739 122.68 136.916C122.26 137.084 121.789 137.168 121.266 137.168ZM127.847 137L133.349 127.2H135.183L129.681 137H127.847ZM134.847 137.168C134.39 137.168 133.974 137.07 133.601 136.874C133.237 136.669 132.948 136.379 132.733 136.006C132.518 135.623 132.411 135.175 132.411 134.662C132.411 134.139 132.518 133.691 132.733 133.318C132.948 132.945 133.237 132.66 133.601 132.464C133.974 132.259 134.39 132.156 134.847 132.156C135.304 132.156 135.715 132.259 136.079 132.464C136.443 132.66 136.732 132.945 136.947 133.318C137.162 133.691 137.269 134.139 137.269 134.662C137.269 135.175 137.162 135.623 136.947 136.006C136.732 136.379 136.443 136.669 136.079 136.874C135.715 137.07 135.304 137.168 134.847 137.168ZM134.833 135.866C135.02 135.866 135.183 135.819 135.323 135.726C135.463 135.633 135.575 135.497 135.659 135.32C135.743 135.143 135.785 134.923 135.785 134.662C135.785 134.391 135.743 134.167 135.659 133.99C135.584 133.803 135.472 133.663 135.323 133.57C135.183 133.477 135.02 133.43 134.833 133.43C134.656 133.43 134.492 133.477 134.343 133.57C134.203 133.663 134.091 133.803 134.007 133.99C133.923 134.167 133.881 134.391 133.881 134.662C133.881 134.923 133.923 135.143 134.007 135.32C134.091 135.497 134.203 135.633 134.343 135.726C134.492 135.819 134.656 135.866 134.833 135.866ZM128.253 132.058C127.805 132.058 127.394 131.955 127.021 131.75C126.657 131.545 126.363 131.255 126.139 130.882C125.924 130.509 125.817 130.065 125.817 129.552C125.817 129.02 125.924 128.572 126.139 128.208C126.363 127.835 126.657 127.545 127.021 127.34C127.394 127.135 127.81 127.032 128.267 127.032C128.724 127.032 129.13 127.135 129.485 127.34C129.849 127.545 130.138 127.835 130.353 128.208C130.577 128.572 130.689 129.02 130.689 129.552C130.689 130.065 130.577 130.509 130.353 130.882C130.138 131.255 129.849 131.545 129.485 131.75C129.121 131.955 128.71 132.058 128.253 132.058ZM128.253 130.756C128.43 130.756 128.589 130.709 128.729 130.616C128.878 130.523 128.995 130.387 129.079 130.21C129.163 130.033 129.205 129.813 129.205 129.552C129.205 129.272 129.163 129.043 129.079 128.866C128.995 128.689 128.878 128.553 128.729 128.46C128.589 128.367 128.43 128.32 128.253 128.32C128.076 128.32 127.912 128.367 127.763 128.46C127.623 128.553 127.511 128.693 127.427 128.88C127.343 129.057 127.301 129.281 127.301 129.552C127.301 129.813 127.343 130.033 127.427 130.21C127.511 130.387 127.623 130.523 127.763 130.616C127.912 130.709 128.076 130.756 128.253 130.756Z" fill="#2B3674"/>
<circle cx="100" cy="119" r="4" fill="#6AD2FF"/>
</g>
<rect x="0.25" y="108.25" width="169.5" height="37.5" rx="14.75" stroke="#EFEFEF" stroke-width="0.5"/>
<circle cx="84.5002" cy="50.5001" r="50.5002" transform="rotate(-90 84.5002 50.5001)" fill="#EFF4FB"/>
<path d="M84.5002 -7.69002e-05C94.7614 -7.54732e-05 104.779 3.12579 113.219 8.96128C121.66 14.7968 128.122 23.065 131.746 32.6649C135.37 42.2649 135.984 52.741 133.505 62.6984C131.026 72.6557 125.573 81.6217 117.872 88.4026C110.17 95.1834 100.586 99.4572 90.395 100.655C80.204 101.853 69.8898 99.9177 60.8261 95.1073C51.7623 90.2969 44.3789 82.8396 39.6591 73.7283C34.9394 64.617 33.1072 54.2841 34.4065 44.1055L84.5002 50.5001L84.5002 -7.69002e-05Z" fill="#6AD2FF"/>
<path d="M84.5002 -7.69002e-05C92.2801 -7.58183e-05 99.9549 1.79746 106.926 5.2523C113.896 8.70713 119.975 13.7258 124.686 19.9168C129.398 26.1079 132.615 33.3038 134.088 40.9431C135.56 48.5825 135.247 56.4588 133.174 63.9574C131.101 71.4561 127.323 78.3743 122.136 84.1724C116.948 89.9705 110.491 94.4916 103.269 97.383C96.046 100.274 88.2529 101.458 80.4974 100.841C72.7419 100.225 65.2338 97.8245 58.5588 93.828L84.5002 50.5001L84.5002 -7.69002e-05Z" fill="#4318FF"/>
<defs>
<clipPath id="clip0_187_456">
<rect y="108" width="170" height="38" rx="15" fill="white"/>
</clipPath>
</defs>
</svg>
