<svg width="35" height="35" viewBox="0 0 35 35" fill="none" xmlns="http://www.w3.org/2000/svg">
<circle cx="17.5" cy="17.5" r="17.5" fill="#4318FF"/>
<path d="M10.977 21.338C11.6997 21.3375 12.3969 21.071 12.9356 20.5893C13.2501 20.3088 13.5017 19.9649 13.6739 19.5803C13.8462 19.1956 13.9353 18.779 13.9353 18.3575C13.9353 17.9361 13.8462 17.5194 13.6739 17.1348C13.5017 16.7502 13.2501 16.4063 12.9356 16.1257C12.3988 15.6431 11.7024 15.3764 10.9805 15.377C10.1901 15.377 9.43197 15.6911 8.87302 16.25C8.31407 16.809 8.00006 17.5671 8.00006 18.3575C8.00006 19.148 8.31407 19.9061 8.87302 20.465C9.43197 21.024 10.1901 21.338 10.9805 21.338L10.977 21.338ZM10.977 16.7963C11.2866 16.7921 11.5906 16.8801 11.8501 17.049C12.1096 17.218 12.313 17.4603 12.4345 17.7452C12.5559 18.0301 12.5899 18.3446 12.532 18.6488C12.4742 18.9531 12.3272 19.2332 12.1098 19.4537C11.8923 19.6742 11.6142 19.825 11.3108 19.887C11.0074 19.949 10.6924 19.9193 10.4059 19.8018C10.1193 19.6843 9.87425 19.4842 9.70174 19.2271C9.52923 18.9699 9.43711 18.6672 9.43708 18.3575C9.43568 18.1539 9.4744 17.952 9.55103 17.7633C9.62766 17.5747 9.7407 17.403 9.88369 17.258C10.0267 17.113 10.1968 16.9976 10.3844 16.9184C10.572 16.8392 10.7734 16.7977 10.977 16.7963Z" fill="white"/>
<path d="M22.4232 29.712C23.295 29.6837 24.1216 29.3175 24.7283 28.6907C25.335 28.064 25.6742 27.2259 25.6742 26.3537C25.6742 25.4814 25.335 24.6433 24.7283 24.0166C24.1216 23.3899 23.295 23.0236 22.4232 22.9953C21.5773 22.9949 20.7633 23.3187 20.1488 23.9001C19.8124 24.2137 19.5443 24.5932 19.3611 25.0151C19.178 25.4369 19.0838 25.892 19.0844 26.3519C19.083 26.7918 19.1682 27.2276 19.3353 27.6345C19.5023 28.0414 19.7478 28.4114 20.0579 28.7235C20.3679 29.0355 20.7364 29.2834 21.1422 29.453C21.5481 29.6226 21.9834 29.7106 22.4232 29.712ZM22.4232 24.4146C22.8084 24.4089 23.1865 24.5181 23.5095 24.728C23.8325 24.938 24.0856 25.2393 24.2368 25.5936C24.388 25.948 24.4303 26.3393 24.3583 26.7177C24.2864 27.0961 24.1035 27.4446 23.8328 27.7187C23.5622 27.9929 23.2161 28.1803 22.8386 28.2571C22.4612 28.3339 22.0694 28.2967 21.7131 28.1501C21.3569 28.0035 21.0523 27.7543 20.8382 27.434C20.6241 27.1138 20.5101 26.7371 20.5107 26.3519C20.5107 25.9735 20.6218 25.6034 20.8301 25.2874C20.8375 25.2741 20.8471 25.2621 20.8585 25.252C21.0318 24.9959 21.2648 24.7858 21.5374 24.64C21.81 24.4941 22.114 24.4167 22.4232 24.4146Z" fill="white"/>
<path d="M19.3436 11.6478C19.5268 12.0894 19.8013 12.4872 20.149 12.8152C20.7635 13.3966 21.5775 13.7204 22.4234 13.72C23.0893 13.7256 23.7419 13.5332 24.2983 13.1673C24.8546 12.8014 25.2897 12.2783 25.5483 11.6647C25.8069 11.051 25.8773 10.3743 25.7506 9.72056C25.6238 9.0668 25.3057 8.46544 24.8366 7.99281C24.3675 7.52018 23.7685 7.19761 23.1157 7.06604C22.4629 6.93447 21.7857 6.99984 21.1701 7.25385C20.5545 7.50786 20.0283 7.93906 19.6583 8.4927C19.2882 9.04634 19.091 9.69745 19.0917 10.3634C19.0909 10.8039 19.1765 11.2402 19.3436 11.6478ZM22.4234 8.42251C22.9234 8.4439 23.3957 8.65755 23.7419 9.01886C24.0881 9.38017 24.2813 9.86122 24.2813 10.3616C24.2813 10.862 24.0881 11.343 23.7419 11.7043C23.3957 12.0657 22.9233 12.2793 22.4234 12.3007C22.1173 12.2998 21.816 12.2251 21.5448 12.0831C21.2737 11.941 21.0408 11.7358 20.8658 11.4846C20.8544 11.4744 20.8448 11.4624 20.8374 11.4491C20.6426 11.1585 20.5299 10.8207 20.5111 10.4714C20.4922 10.122 20.568 9.77406 20.7304 9.46418C20.8928 9.1543 21.1358 8.89398 21.4337 8.71064C21.7317 8.52731 22.0736 8.42777 22.4234 8.42251Z" fill="white"/>
<path d="M20.8515 25.2557C20.8589 25.2424 20.8685 25.2304 20.8799 25.2203C20.8743 25.2347 20.8644 25.2472 20.8515 25.2557Z" fill="white"/>
<path d="M12.9355 20.5899C13.2919 20.2701 13.5668 19.8699 13.7374 19.4226L20.149 23.9004C19.8013 24.2284 19.5268 24.6262 19.3436 25.0677L12.9355 20.5899Z" fill="white"/>
<path d="M20.8656 11.4813C20.8542 11.4711 20.8447 11.4592 20.8372 11.4458C20.8501 11.4544 20.8601 11.4668 20.8656 11.4813Z" fill="white"/>
<path d="M12.932 16.1261L19.3436 11.6483C19.5268 12.0898 19.8013 12.4876 20.149 12.8156L13.7374 17.2935C13.5669 16.8451 13.2906 16.4446 12.932 16.1261Z" fill="white"/>
</svg>
