<svg width="35" height="35" viewBox="0 0 35 35" fill="none" xmlns="http://www.w3.org/2000/svg">
<circle cx="17.5" cy="17.5" r="17.5" fill="#4318FF"/>
<path d="M23.3484 14.05C22.6258 14.0505 21.9286 14.317 21.3898 14.7987C21.0754 15.0793 20.8238 15.4232 20.6515 15.8078C20.4792 16.1924 20.3902 16.6091 20.3902 17.0305C20.3902 17.452 20.4792 17.8687 20.6515 18.2533C20.8238 18.6379 21.0754 18.9818 21.3898 19.2624C21.9266 19.745 22.6231 20.0117 23.3449 20.011C24.1354 20.011 24.8935 19.697 25.4524 19.1381C26.0114 18.5791 26.3254 17.821 26.3254 17.0305C26.3254 16.2401 26.0114 15.482 25.4524 14.923C24.8935 14.3641 24.1354 14.05 23.3449 14.05H23.3484ZM23.3484 18.5917C23.0388 18.596 22.7349 18.508 22.4754 18.339C22.2158 18.1701 22.0124 17.9278 21.891 17.6429C21.7696 17.358 21.7356 17.0435 21.7934 16.7392C21.8512 16.435 21.9982 16.1548 22.2157 15.9343C22.4331 15.7139 22.7113 15.5631 23.0147 15.5011C23.3181 15.4391 23.6331 15.4687 23.9196 15.5862C24.2061 15.7038 24.4512 15.9038 24.6237 16.161C24.7962 16.4182 24.8883 16.7209 24.8884 17.0305C24.8898 17.2342 24.851 17.4361 24.7744 17.6247C24.6978 17.8134 24.5847 17.9851 24.4417 18.1301C24.2988 18.275 24.1286 18.3904 23.941 18.4696C23.7534 18.5489 23.5521 18.5903 23.3484 18.5917Z" fill="white"/>
<path d="M11.9022 5.67603C11.0304 5.70437 10.2038 6.07061 9.59712 6.69733C8.99044 7.32405 8.65125 8.16213 8.65125 9.03439C8.65125 9.90666 8.99044 10.7447 9.59712 11.3715C10.2038 11.9982 11.0304 12.3644 11.9022 12.3928C12.7482 12.3932 13.5621 12.0694 14.1766 11.488C14.513 11.1744 14.7811 10.7948 14.9643 10.373C15.1474 9.95113 15.2417 9.49606 15.2411 9.03617C15.2425 8.59631 15.1572 8.16047 14.9902 7.75356C14.8231 7.34664 14.5776 6.97661 14.2676 6.66459C13.9575 6.35257 13.589 6.10468 13.1832 5.93506C12.7774 5.76544 12.3421 5.67742 11.9022 5.67603ZM11.9022 10.9735C11.517 10.9791 11.1389 10.87 10.8159 10.66C10.493 10.4501 10.2398 10.1487 10.0886 9.79442C9.93747 9.4401 9.89517 9.04881 9.96711 8.67037C10.0391 8.29193 10.222 7.94345 10.4926 7.66931C10.7632 7.39517 11.1093 7.20776 11.4868 7.13094C11.8643 7.05413 12.2561 7.09138 12.6123 7.23795C12.9686 7.38453 13.2731 7.63379 13.4873 7.95402C13.7014 8.27425 13.8154 8.65095 13.8147 9.03617C13.8147 9.41459 13.7037 9.7847 13.4954 10.1006C13.4879 10.1139 13.4783 10.1259 13.467 10.1361C13.2937 10.3922 13.0606 10.6022 12.788 10.7481C12.5154 10.894 12.2114 10.9713 11.9022 10.9735Z" fill="white"/>
<path d="M14.9819 23.7402C14.7986 23.2987 14.5241 22.9009 14.1764 22.5729C13.5619 21.9915 12.748 21.6677 11.902 21.6681C11.2361 21.6625 10.5836 21.8548 10.0272 22.2208C9.47081 22.5867 9.03572 23.1097 8.77714 23.7234C8.51857 24.3371 8.44817 25.0137 8.57488 25.6675C8.7016 26.3213 9.01972 26.9226 9.48885 27.3953C9.95798 27.8679 10.557 28.1905 11.2098 28.322C11.8626 28.4536 12.5397 28.3882 13.1553 28.1342C13.7709 27.8802 14.2971 27.449 14.6672 26.8954C15.0372 26.3417 15.2345 25.6906 15.2338 25.0247C15.2345 24.5842 15.1489 24.1478 14.9819 23.7402ZM11.902 26.9655C11.4021 26.9442 10.9297 26.7305 10.5836 26.3692C10.2374 26.0079 10.0441 25.5268 10.0441 25.0265C10.0441 24.5261 10.2374 24.045 10.5836 23.6837C10.9297 23.3224 11.4021 23.1088 11.902 23.0874C12.2081 23.0883 12.5095 23.1629 12.7806 23.305C13.0518 23.447 13.2847 23.6523 13.4597 23.9035C13.471 23.9136 13.4806 23.9256 13.4881 23.9389C13.6828 24.2296 13.7956 24.5674 13.8144 24.9167C13.8332 25.266 13.7574 25.614 13.5951 25.9239C13.4327 26.2338 13.1897 26.4941 12.8917 26.6774C12.5937 26.8607 12.2518 26.9603 11.902 26.9655Z" fill="white"/>
<path d="M13.474 10.1323C13.4665 10.1456 13.4569 10.1576 13.4456 10.1678C13.4511 10.1533 13.461 10.1409 13.474 10.1323Z" fill="white"/>
<path d="M21.3899 14.7981C21.0336 15.1179 20.7586 15.5181 20.588 15.9655L14.1764 11.4877C14.5242 11.1597 14.7987 10.7618 14.9819 10.3203L21.3899 14.7981Z" fill="white"/>
<path d="M13.4598 23.9067C13.4712 23.9169 13.4808 23.9289 13.4882 23.9422C13.4753 23.9336 13.4654 23.9212 13.4598 23.9067Z" fill="white"/>
<path d="M21.3935 19.262L14.9819 23.7398C14.7987 23.2983 14.5242 22.9004 14.1764 22.5724L20.588 18.0946C20.7585 18.5429 21.0349 18.9434 21.3935 19.262Z" fill="white"/>
</svg>
