<svg width="91" height="91" viewBox="0 0 91 91" fill="none" xmlns="http://www.w3.org/2000/svg">
<g clip-path="url(#clip0_1_649)">
<path d="M67.5296 16.9488C67.2262 16.9488 66.9229 16.873 66.6575 16.7213C59.3775 12.9675 53.0833 11.375 45.5379 11.375C38.0304 11.375 30.9021 13.1571 24.4183 16.7213C23.5083 17.2142 22.3708 16.873 21.84 15.963C21.3471 15.053 21.6883 13.8775 22.5983 13.3846C29.6508 9.55504 37.3858 7.58337 45.5379 7.58337C53.6142 7.58337 60.6667 9.36546 68.4017 13.3467C69.3496 13.8396 69.6908 14.9771 69.1979 15.8871C68.8567 16.5696 68.2121 16.9488 67.5296 16.9488ZM13.2708 36.855C12.8917 36.855 12.5125 36.7413 12.1712 36.5138C11.2992 35.9071 11.1096 34.7317 11.7162 33.8596C15.47 28.5513 20.2475 24.3805 25.935 21.4609C37.8408 15.3184 53.0833 15.2805 65.0271 21.423C70.7146 24.3425 75.4921 28.4755 79.2458 33.7459C79.8525 34.58 79.6629 35.7934 78.7908 36.4C77.9188 37.0067 76.7433 36.8171 76.1367 35.945C72.7242 31.1675 68.4017 27.4138 63.2829 24.7975C52.4008 19.2238 38.4854 19.2238 27.6413 24.8355C22.4846 27.4896 18.1621 31.2813 14.7496 36.0588C14.4462 36.5896 13.8775 36.855 13.2708 36.855ZM36.9688 82.6205C36.4758 82.6205 35.9829 82.4309 35.6417 82.0517C32.3429 78.753 30.5608 76.6296 28.0204 72.0417C25.4042 67.378 24.0392 61.6905 24.0392 55.5859C24.0392 44.3246 33.67 35.1488 45.5 35.1488C57.33 35.1488 66.9608 44.3246 66.9608 55.5859C66.9608 56.6475 66.1267 57.4817 65.065 57.4817C64.0033 57.4817 63.1692 56.6475 63.1692 55.5859C63.1692 46.41 55.2446 38.9405 45.5 38.9405C35.7554 38.9405 27.8308 46.41 27.8308 55.5859C27.8308 61.0459 29.0442 66.0888 31.3571 70.1838C33.7838 74.5442 35.4521 76.4021 38.3717 79.3596C39.0921 80.118 39.0921 81.2934 38.3717 82.0517C37.9546 82.4309 37.4617 82.6205 36.9688 82.6205ZM64.155 75.6059C59.6429 75.6059 55.6617 74.4684 52.4008 72.2313C46.7512 68.4017 43.3767 62.1834 43.3767 55.5859C43.3767 54.5242 44.2108 53.69 45.2725 53.69C46.3342 53.69 47.1683 54.5242 47.1683 55.5859C47.1683 60.9321 49.8983 65.975 54.5242 69.0842C57.2162 70.9042 60.3633 71.7763 64.155 71.7763C65.065 71.7763 66.5817 71.6625 68.0983 71.3971C69.1221 71.2075 70.1079 71.89 70.2975 72.9517C70.4871 73.9755 69.8046 74.9613 68.7429 75.1509C66.5817 75.568 64.6858 75.6059 64.155 75.6059ZM56.5337 83.4167C56.3821 83.4167 56.1925 83.3788 56.0408 83.3409C50.0121 81.6725 46.0688 79.4354 41.9358 75.3784C36.6275 70.108 33.7079 63.0934 33.7079 55.5859C33.7079 49.4434 38.9404 44.4384 45.3862 44.4384C51.8321 44.4384 57.0646 49.4434 57.0646 55.5859C57.0646 59.643 60.5908 62.9417 64.9512 62.9417C69.3117 62.9417 72.8379 59.643 72.8379 55.5859C72.8379 41.2913 60.515 29.6888 45.3483 29.6888C34.58 29.6888 24.7217 35.6796 20.2854 44.9692C18.8067 48.0405 18.0483 51.6425 18.0483 55.5859C18.0483 58.5434 18.3137 63.2071 20.5887 69.2738C20.9679 70.2596 20.475 71.3592 19.4892 71.7005C18.5033 72.0796 17.4037 71.5488 17.0625 70.6009C15.2046 65.6338 14.2946 60.7046 14.2946 55.5859C14.2946 51.0359 15.1667 46.903 16.8729 43.3009C21.9158 32.7221 33.1012 25.8592 45.3483 25.8592C62.6004 25.8592 76.6296 39.168 76.6296 55.548C76.6296 61.6905 71.3971 66.6955 64.9512 66.6955C58.5054 66.6955 53.2729 61.6905 53.2729 55.548C53.2729 51.4909 49.7467 48.1921 45.3862 48.1921C41.0258 48.1921 37.4996 51.4909 37.4996 55.548C37.4996 62.0317 40.0021 68.0984 44.59 72.6484C48.1921 76.2125 51.6425 78.1842 56.9887 79.663C58.0125 79.9284 58.5812 80.99 58.3158 81.9759C58.1263 82.848 57.33 83.4167 56.5337 83.4167Z" fill="#4318FF"/>
</g>
<defs>
<clipPath id="clip0_1_649">
<rect width="91" height="91" fill="white"/>
</clipPath>
</defs>
</svg>
