<svg width="20" height="20" viewBox="0 0 20 20" fill="none" xmlns="http://www.w3.org/2000/svg">
<path d="M20 2.30769C20 1.03846 18.9615 0 17.6923 0H2.30769C1.03846 0 0 1.03846 0 2.30769V3.20769C0 3.82308 0.238462 4.40769 0.676923 4.83846L6.92308 11.0846V19.2308C6.92308 19.4769 7.03846 19.7077 7.24615 19.8538C7.37692 19.9538 7.53077 20 7.69231 20C7.77692 20 7.85385 19.9846 7.93846 19.9615L11.5 18.7769C12.4385 18.4615 13.0769 17.5769 13.0769 16.5846V11.0923L19.3231 4.84615C19.7615 4.40769 20 3.82308 20 3.20769V2.30769ZM18.4615 3.20769C18.4615 3.41538 18.3846 3.60769 18.2385 3.75385L11.7692 10.2231C11.6231 10.3692 11.5385 10.5615 11.5385 10.7692V16.5846C11.5385 16.9154 11.3308 17.2077 11.0154 17.3154L8.46154 18.1615V10.7692C8.46154 10.5615 8.37692 10.3692 8.23846 10.2231L1.76154 3.75385C1.61538 3.60769 1.53846 3.41538 1.53846 3.20769V2.30769C1.53846 1.88462 1.88462 1.53846 2.30769 1.53846H17.6923C18.1154 1.53846 18.4615 1.88462 18.4615 2.30769V3.20769Z" fill="#3843FF"/>
</svg>
