<svg width="90" height="90" viewBox="0 0 90 90" fill="none" xmlns="http://www.w3.org/2000/svg">
<path d="M72.1287 7.1055L69.4998 0L66.8709 7.1055C65.0232 12.0938 61.0936 16.0235 56.1049 17.8715L48.9994 20.5004L56.1049 23.1293C61.0932 24.977 65.0229 28.9066 66.8709 33.8953L69.4998 41.0008L72.1287 33.8953C73.9764 28.907 77.906 24.9773 82.8947 23.1293L90.0002 20.5004L82.8947 17.8715C77.9064 16.0238 73.9767 12.0942 72.1287 7.1055Z" fill="white"/>
<path d="M38.9256 32.9575L34.4998 21.0005L30.074 32.9575C26.9685 41.352 20.3513 47.9695 11.957 51.0745L0 55.5003L11.957 59.9261C20.3515 63.0316 26.969 69.6488 30.074 78.0431L34.4998 90.0001L38.9256 78.0431C42.0311 69.6486 48.6483 63.0311 57.0426 59.9261L68.9996 55.5003L57.0426 51.0745C48.6481 47.969 42.0306 41.3518 38.9256 32.9575Z" fill="white"/>
</svg>
