<svg width="100" height="71" viewBox="0 0 100 71" fill="none" xmlns="http://www.w3.org/2000/svg">
<path d="M32.6236 69.1979C32.9394 69.5766 33.3307 69.8854 33.7726 70.1046C34.2144 70.3237 34.697 70.4484 35.1897 70.4706C35.6824 70.4929 36.1743 70.4122 36.6341 70.2338C37.0939 70.0554 37.5114 69.7832 37.8602 69.4345C38.2089 69.0857 38.4811 68.6682 38.6595 68.2084C38.8379 67.7486 38.9186 67.2567 38.8963 66.764C38.8741 66.2713 38.7494 65.7887 38.5302 65.3469C38.3111 64.905 38.0023 64.5137 37.6235 64.1979L12.1135 38.6579L96.4335 38.6579C97.3438 38.6096 98.2008 38.214 98.8281 37.5526C99.4553 36.8912 99.8049 36.0144 99.8049 35.1029C99.8049 34.1913 99.4553 33.3145 98.8281 32.6532C98.2008 31.9918 97.3438 31.5962 96.4335 31.5479L12.1135 31.5479L37.6635 6.03786C38.3066 5.3644 38.6655 4.46904 38.6655 3.53786C38.6655 2.60668 38.3066 1.71131 37.6635 1.03786C37.3356 0.708892 36.946 0.447883 36.517 0.269791C36.088 0.0916983 35.628 2.28882e-05 35.1635 2.28882e-05C34.699 2.28882e-05 34.2391 0.0916983 33.8101 0.269791C33.3811 0.447883 32.9915 0.708892 32.6635 1.03786L1.06355 32.6379C0.727216 32.9616 0.459666 33.3499 0.276917 33.7794C0.0941665 34.209 -2.28882e-05 34.671 -2.28882e-05 35.1379C-2.28882e-05 35.6047 0.0941665 36.0667 0.276917 36.4963C0.459666 36.9258 0.727216 37.3141 1.06355 37.6379L32.6236 69.1979Z" fill="black"/>
</svg>
