<svg width="76" height="30" viewBox="0 0 76 30" fill="none" xmlns="http://www.w3.org/2000/svg">
<rect width="76" height="30" rx="13" fill="#D1F7DE"/>
<path d="M20.966 20V10.2H24.242C25.3807 10.2 26.3187 10.4053 27.056 10.816C27.8027 11.2173 28.3533 11.7867 28.708 12.524C29.072 13.252 29.254 14.1107 29.254 15.1C29.254 16.0893 29.072 16.9527 28.708 17.69C28.3533 18.418 27.8073 18.9873 27.07 19.398C26.3327 19.7993 25.39 20 24.242 20H20.966ZM22.856 18.376H24.144C24.9467 18.376 25.5767 18.2453 26.034 17.984C26.5007 17.7227 26.832 17.3493 27.028 16.864C27.224 16.3693 27.322 15.7813 27.322 15.1C27.322 14.4093 27.224 13.8213 27.028 13.336C26.832 12.8413 26.5007 12.4633 26.034 12.202C25.5767 11.9407 24.9467 11.81 24.144 11.81H22.856V18.376ZM34.1544 20.168C33.4824 20.168 32.8758 20.014 32.3344 19.706C31.8024 19.3887 31.3778 18.9547 31.0604 18.404C30.7524 17.844 30.5984 17.2047 30.5984 16.486C30.5984 15.7487 30.7524 15.1047 31.0604 14.554C31.3778 13.994 31.8071 13.56 32.3484 13.252C32.8898 12.9347 33.4964 12.776 34.1684 12.776C34.8498 12.776 35.4564 12.9347 35.9884 13.252C36.5298 13.56 36.9544 13.994 37.2624 14.554C37.5798 15.1047 37.7384 15.744 37.7384 16.472C37.7384 17.2 37.5798 17.844 37.2624 18.404C36.9544 18.9547 36.5298 19.3887 35.9884 19.706C35.4471 20.014 34.8358 20.168 34.1544 20.168ZM34.1544 18.53C34.4718 18.53 34.7518 18.4553 34.9944 18.306C35.2464 18.1567 35.4424 17.928 35.5824 17.62C35.7318 17.312 35.8064 16.9293 35.8064 16.472C35.8064 16.0147 35.7318 15.6367 35.5824 15.338C35.4424 15.03 35.2464 14.8013 34.9944 14.652C34.7518 14.4933 34.4764 14.414 34.1684 14.414C33.8698 14.414 33.5944 14.4933 33.3424 14.652C33.0904 14.8013 32.8898 15.03 32.7404 15.338C32.6004 15.6367 32.5304 16.0147 32.5304 16.472C32.5304 16.9293 32.6004 17.312 32.7404 17.62C32.8898 17.928 33.0858 18.1567 33.3284 18.306C33.5804 18.4553 33.8558 18.53 34.1544 18.53ZM39.3674 20V12.944H41.0334L41.1734 14.092C41.388 13.7 41.6914 13.3827 42.0834 13.14C42.4847 12.8973 42.9607 12.776 43.5114 12.776C44.0994 12.776 44.594 12.8973 44.9954 13.14C45.3967 13.3827 45.7 13.7373 45.9054 14.204C46.12 14.6707 46.2274 15.2447 46.2274 15.926V20H44.3514V16.108C44.3514 15.548 44.23 15.1187 43.9874 14.82C43.754 14.5213 43.39 14.372 42.8954 14.372C42.578 14.372 42.2934 14.4467 42.0414 14.596C41.7987 14.7453 41.6074 14.96 41.4674 15.24C41.3274 15.5107 41.2574 15.842 41.2574 16.234V20H39.3674ZM51.396 20.168C50.6867 20.168 50.0567 20.0187 49.506 19.72C48.9647 19.412 48.54 18.9873 48.232 18.446C47.9333 17.8953 47.784 17.2607 47.784 16.542C47.784 15.8047 47.9333 15.156 48.232 14.596C48.54 14.0267 48.9647 13.5833 49.506 13.266C50.0473 12.9393 50.6773 12.776 51.396 12.776C52.096 12.776 52.7073 12.93 53.23 13.238C53.7527 13.546 54.1587 13.9613 54.448 14.484C54.7373 15.0067 54.882 15.5993 54.882 16.262C54.882 16.3553 54.882 16.4627 54.882 16.584C54.882 16.696 54.8727 16.8127 54.854 16.934H49.128V15.786H52.978C52.95 15.3287 52.7867 14.9693 52.488 14.708C52.1987 14.4467 51.8347 14.316 51.396 14.316C51.0787 14.316 50.7847 14.3907 50.514 14.54C50.2433 14.68 50.0287 14.8993 49.87 15.198C49.7207 15.4967 49.646 15.8747 49.646 16.332V16.738C49.646 17.1207 49.716 17.4567 49.856 17.746C50.0053 18.026 50.2107 18.2453 50.472 18.404C50.7333 18.5533 51.0367 18.628 51.382 18.628C51.7273 18.628 52.012 18.5533 52.236 18.404C52.4693 18.2547 52.642 18.0633 52.754 17.83H54.686C54.5553 18.2687 54.336 18.6653 54.028 19.02C53.72 19.3747 53.342 19.6547 52.894 19.86C52.446 20.0653 51.9467 20.168 51.396 20.168Z" fill="#248C59"/>
</svg>
