<svg width="51" height="51" viewBox="0 0 51 51" fill="none" xmlns="http://www.w3.org/2000/svg">
<circle cx="25.5" cy="25.5" r="25" fill="white" stroke="#E9E9E9"/>
<path d="M37.0438 14H14.954C13.8764 14 13 14.8211 13 15.8285V29.8636C13 30.8719 13.8764 31.6921 14.954 31.6921H22.9863L21.7696 35.2758H19.385C19.1718 35.2758 18.9981 35.4383 18.9981 35.6379C18.9981 35.8375 19.1717 36 19.385 36H32.615C32.8282 36 33.0019 35.8375 33.0019 35.6379C33.0019 35.4383 32.8283 35.2758 32.615 35.2758H30.2304L29.0137 31.6921H37.046C38.1236 31.6921 39 30.8719 39 29.8636V15.8285C39 14.8202 38.1236 14 37.046 14H37.0438ZM29.4168 35.2767H22.582L23.7986 31.693H28.2013L29.4179 35.2767H29.4168ZM38.2249 29.8635C38.2249 30.4726 37.6958 30.9678 37.0448 30.9678L14.9539 30.9668C14.303 30.9668 13.7738 30.4717 13.7738 29.8625V28.838H38.2248L38.2249 29.8635ZM38.2249 28.1148H13.7739V15.8285C13.7739 15.2202 14.303 14.7241 14.954 14.7241H37.0448C37.6958 14.7241 38.2249 15.2193 38.2249 15.8285L38.2249 28.1148ZM24.4151 29.8207C24.4151 29.6211 24.5888 29.4586 24.8021 29.4586H27.1948C27.408 29.4586 27.5817 29.6211 27.5817 29.8207C27.5817 30.0203 27.408 30.1828 27.1948 30.1828H24.8021C24.5888 30.1828 24.4151 30.0203 24.4151 29.8207ZM20.7285 19.8028C20.6239 19.6289 20.692 19.4056 20.8788 19.3077C20.9316 19.2801 21.4313 19.034 22.6632 19.034C23.8951 19.034 24.6913 19.5367 24.7218 19.5586C24.8944 19.6764 24.932 19.9036 24.8061 20.0642C24.7299 20.1611 24.6121 20.2134 24.4933 20.2134C24.4141 20.2134 24.3338 20.1906 24.2658 20.144C24.2627 20.1421 23.6727 19.7591 22.6642 19.7591C21.6547 19.7591 21.2566 19.9416 21.2536 19.9435C21.0677 20.0414 20.8352 19.9786 20.7296 19.8047L20.7285 19.8028ZM22.6632 22.0447C21.6497 22.0447 21.2556 22.2272 21.2526 22.2291C21.0667 22.327 20.8341 22.2643 20.7285 22.0904C20.6239 21.9164 20.692 21.6931 20.8788 21.5952C20.9316 21.5676 21.4313 21.3215 22.6632 21.3215C23.8951 21.3215 24.6913 21.8242 24.7218 21.8461C24.8944 21.9639 24.932 22.1911 24.8061 22.3517C24.7299 22.4486 24.6121 22.5009 24.4933 22.5009C24.4141 22.5009 24.3338 22.4781 24.2658 22.4315C24.2627 22.4296 23.6727 22.0466 22.6642 22.0466L22.6632 22.0447ZM27.2039 20.0632C27.0779 19.9017 27.1155 19.6755 27.2882 19.5576C27.3186 19.5358 28.0702 19.0331 29.3467 19.0331C30.6233 19.0331 31.0793 19.2792 31.1311 19.3068C31.317 19.4047 31.382 19.6261 31.2774 19.8C31.1738 19.972 30.9412 20.0338 30.7564 19.9397C30.735 19.9302 30.3369 19.7553 29.3457 19.7553C28.3535 19.7553 27.7492 20.1364 27.7442 20.1402C27.6761 20.1868 27.5949 20.2096 27.5167 20.2096C27.3968 20.2096 27.28 20.1583 27.2039 20.0604L27.2039 20.0632ZM27.2039 22.3498C27.0779 22.1882 27.1155 21.962 27.2882 21.8442C27.3186 21.8224 28.0702 21.3196 29.3467 21.3196C30.6233 21.3196 31.0793 21.5658 31.1311 21.5933C31.317 21.6912 31.382 21.9127 31.2774 22.0866C31.1738 22.2586 30.9412 22.3204 30.7564 22.2263C30.735 22.2168 30.3369 22.0419 29.3457 22.0419C28.3535 22.0419 27.7492 22.423 27.7442 22.4268C27.6761 22.4734 27.5949 22.4962 27.5167 22.4962C27.3968 22.4962 27.28 22.4448 27.2039 22.347L27.2039 22.3498ZM33.7909 18.805H32.8444V17.1827C32.8444 17.0307 32.7428 16.8938 32.5905 16.8425C32.5367 16.8235 31.253 16.3949 29.3355 16.3949C27.7664 16.3949 26.4826 16.9518 25.9993 17.1932C25.5159 16.9518 24.2322 16.3949 22.6632 16.3949C20.7458 16.3949 19.4612 16.8245 19.4081 16.8425C19.2558 16.8938 19.1542 17.0307 19.1542 17.1827V18.805H18.2077C17.9944 18.805 17.8208 18.9675 17.8208 19.1671V26.2036C17.8208 26.4032 17.9944 26.5657 18.2077 26.5657H33.7916C34.0049 26.5657 34.1785 26.4032 34.1785 26.2036L34.1796 19.1671C34.1796 18.9675 34.0059 18.805 33.7926 18.805H33.7909ZM32.0705 17.4508V24.2087C31.4947 24.0776 30.4862 23.8951 29.3347 23.8951C28.1831 23.8951 27.0364 24.2667 26.3864 24.5318L26.3854 17.8223C26.818 17.6104 27.9687 17.12 29.3337 17.12C30.6996 17.12 31.6258 17.3338 32.0695 17.4507L32.0705 17.4508ZM19.9283 17.4498C20.3701 17.3329 21.3613 17.1191 22.6642 17.1191C23.9682 17.1191 25.1808 17.6104 25.6124 17.8214V24.5309C24.9625 24.2648 23.8433 23.8942 22.6642 23.8942C21.4841 23.8942 20.5041 24.0776 19.9283 24.2078V17.4498ZM18.5949 19.5292H19.1545V24.6831C19.1545 24.7991 19.2144 24.9074 19.3139 24.9758C19.4134 25.0443 19.5424 25.0623 19.6612 25.0272C19.6744 25.0234 21.0343 24.6185 22.6654 24.6185C23.9226 24.6185 25.1474 25.1165 25.6136 25.3294V25.8407H18.595V19.5284L18.5949 19.5292ZM33.404 25.8415H26.3854V25.3301C26.8516 25.1173 28.0773 24.6193 29.3337 24.6193C30.9647 24.6193 32.3245 25.0241 32.3378 25.0279C32.4546 25.0631 32.5846 25.0441 32.6851 24.9766C32.7857 24.9082 32.8446 24.7998 32.8446 24.6839V19.53H33.4041V25.8422L33.404 25.8415Z" fill="#4318FF"/>
</svg>
