<svg width="26" height="22" viewBox="0 0 26 22" fill="none" xmlns="http://www.w3.org/2000/svg">
<path d="M24.0438 0H1.95396C0.876442 0 0 0.821115 0 1.8285V15.8636C0 16.8719 0.876442 17.6921 1.95396 17.6921H9.98626L8.7696 21.2758H6.38502C6.17175 21.2758 5.99808 21.4383 5.99808 21.6379C5.99808 21.8375 6.17175 22 6.38502 22H19.615C19.8282 22 20.0019 21.8375 20.0019 21.6379C20.0019 21.4383 19.8283 21.2758 19.615 21.2758H17.2304L16.0137 17.6921H24.046C25.1236 17.6921 26 16.8719 26 15.8636V1.8285C26 0.820167 25.1236 0 24.046 0H24.0438ZM16.4168 21.2767H9.58198L10.7986 17.693H15.2013L16.4179 21.2767H16.4168ZM25.2249 15.8635C25.2249 16.4726 24.6957 16.9678 24.0448 16.9678L1.95393 16.9668C1.30295 16.9668 0.773825 16.4717 0.773825 15.8625V14.838H25.2248L25.2249 15.8635ZM25.2249 14.1148H0.773877V1.82847C0.773877 1.22024 1.303 0.724138 1.95398 0.724138H24.0448C24.6958 0.724138 25.2249 1.21929 25.2249 1.82847L25.2249 14.1148ZM11.4151 15.8207C11.4151 15.6211 11.5888 15.4586 11.8021 15.4586H14.1948C14.408 15.4586 14.5817 15.6211 14.5817 15.8207C14.5817 16.0203 14.408 16.1828 14.1948 16.1828H11.8021C11.5888 16.1828 11.4151 16.0203 11.4151 15.8207ZM7.72853 5.80284C7.62393 5.62892 7.69197 5.40559 7.87884 5.30769C7.93164 5.28013 8.43131 5.03398 9.6632 5.03398C10.8951 5.03398 11.6913 5.53673 11.7218 5.55857C11.8944 5.67642 11.932 5.90356 11.8061 6.06416C11.7299 6.1611 11.6121 6.21337 11.4933 6.21337C11.4141 6.21337 11.3338 6.19056 11.2658 6.14399C11.2627 6.14209 10.6727 5.7591 9.66422 5.7591C8.65475 5.7591 8.25663 5.94157 8.25359 5.94347C8.06774 6.04136 7.83516 5.97863 7.72956 5.80472L7.72853 5.80284ZM9.6632 8.04474C8.64966 8.04474 8.2556 8.22721 8.25256 8.22911C8.06671 8.327 7.83414 8.26427 7.72853 8.09036C7.62393 7.91644 7.69197 7.69311 7.87884 7.59521C7.93164 7.56765 8.43131 7.3215 9.6632 7.3215C10.8951 7.3215 11.6913 7.82424 11.7218 7.84609C11.8944 7.96394 11.932 8.19108 11.8061 8.35168C11.7299 8.44862 11.6121 8.50089 11.4933 8.50089C11.4141 8.50089 11.3338 8.47808 11.2658 8.43151C11.2627 8.42961 10.6727 8.04662 9.66422 8.04662L9.6632 8.04474ZM14.2039 6.06324C14.0779 5.90167 14.1155 5.67548 14.2882 5.55765C14.3186 5.53579 15.0702 5.03306 16.3467 5.03306C17.6233 5.03306 18.0793 5.2792 18.1311 5.30676C18.317 5.40465 18.382 5.62609 18.2774 5.79999C18.1738 5.97201 17.9412 6.03378 17.7564 5.9397C17.735 5.93019 17.3369 5.75533 16.3457 5.75533C15.3535 5.75533 14.7492 6.13642 14.7442 6.14022C14.6761 6.18679 14.5949 6.20959 14.5167 6.20959C14.3968 6.20959 14.28 6.15827 14.2039 6.06039L14.2039 6.06324ZM14.2039 8.34981C14.0779 8.18824 14.1155 7.96204 14.2882 7.84422C14.3186 7.82236 15.0702 7.31963 16.3467 7.31963C17.6233 7.31963 18.0793 7.56577 18.1311 7.59333C18.317 7.69122 18.382 7.91266 18.2774 8.08656C18.1738 8.25858 17.9412 8.32035 17.7564 8.22627C17.735 8.21676 17.3369 8.0419 16.3457 8.0419C15.3535 8.0419 14.7492 8.42299 14.7442 8.42679C14.6761 8.47335 14.5949 8.49616 14.5167 8.49616C14.3968 8.49616 14.28 8.44484 14.2039 8.34696L14.2039 8.34981ZM20.7909 4.80502H19.8444V3.18274C19.8444 3.03068 19.7428 2.89383 19.5905 2.84252C19.5367 2.82351 18.253 2.39491 16.3355 2.39491C14.7664 2.39491 13.4826 2.95183 12.9993 3.1932C12.5159 2.95181 11.2322 2.39491 9.66315 2.39491C7.74575 2.39491 6.46116 2.82447 6.40812 2.84252C6.25578 2.89384 6.15422 3.03069 6.15422 3.18274V4.80502H5.20772C4.99445 4.80502 4.82078 4.96753 4.82078 5.16711V12.2036C4.82078 12.4032 4.99444 12.5657 5.20772 12.5657H20.7916C21.0049 12.5657 21.1785 12.4032 21.1785 12.2036L21.1796 5.16711C21.1796 4.96754 21.0059 4.80502 20.7926 4.80502H20.7909ZM19.0705 3.45075V10.2087C18.4947 10.0776 17.4862 9.89508 16.3347 9.89508C15.1831 9.89508 14.0364 10.2667 13.3864 10.5318L13.3854 3.82229C13.818 3.61035 14.9687 3.11997 16.3337 3.11997C17.6996 3.11997 18.6258 3.3338 19.0695 3.4507L19.0705 3.45075ZM6.92834 3.4498C7.37011 3.33291 8.36131 3.11907 9.66418 3.11907C10.9682 3.11907 12.1808 3.6104 12.6124 3.82138V10.5309C11.9625 10.2648 10.8433 9.89418 9.66418 9.89418C8.48408 9.89418 7.50406 10.0776 6.92834 10.2078V3.4498ZM5.59489 5.52921H6.15446V10.6831C6.15446 10.7991 6.21438 10.9074 6.31391 10.9758C6.41343 11.0443 6.54241 11.0623 6.66123 11.0272C6.67443 11.0234 8.03427 10.6185 9.66538 10.6185C10.9226 10.6185 12.1474 11.1165 12.6136 11.3294V11.8407H5.59502V5.52844L5.59489 5.52921ZM20.404 11.8415H13.3854V11.3301C13.8516 11.1173 15.0773 10.6193 16.3337 10.6193C17.9647 10.6193 19.3245 11.0241 19.3378 11.0279C19.4546 11.0631 19.5846 11.0441 19.6851 10.9766C19.7857 10.9082 19.8446 10.7998 19.8446 10.6839V5.52997H20.4041V11.8422L20.404 11.8415Z" fill="#4318FF"/>
</svg>
