<svg width="26" height="16" viewBox="0 0 26 16" fill="none" xmlns="http://www.w3.org/2000/svg">
<path d="M25.6675 0H7.46231C7.37433 0 7.28943 0.0389736 7.22703 0.108898C7.16463 0.178822 7.12985 0.273965 7.12985 0.372548C7.12985 1.26896 6.4813 1.9957 5.68139 1.9957C4.88146 1.9957 4.23294 1.26893 4.23294 0.372548C4.23294 0.273965 4.19816 0.178822 4.13576 0.108898C4.07336 0.0389736 3.98846 0 3.90048 0H0.33145C0.243477 0 0.159597 0.0389736 0.0971989 0.108898C0.0348004 0.178822 2.13363e-05 0.273965 2.13363e-05 0.372548V15.6275C-0.00100153 15.726 0.0348004 15.8212 0.0971989 15.8911C0.159597 15.961 0.243477 16 0.33145 16H3.90048C3.98846 16 4.07336 15.961 4.13576 15.8911C4.19816 15.8212 4.23294 15.726 4.23294 15.6275C4.23294 14.731 4.88148 14.0043 5.68139 14.0043C6.48133 14.0043 7.12985 14.7311 7.12985 15.6275C7.12985 15.726 7.16463 15.8212 7.22703 15.8911C7.28943 15.961 7.37433 16 7.46231 16H25.6675C25.7555 16 25.8394 15.961 25.9018 15.8911C25.9642 15.8212 26 15.726 26 15.6275V0.372548C26 0.273965 25.9642 0.178822 25.9018 0.108898C25.8394 0.0389736 25.7555 0 25.6675 0ZM10.698 15.2549H7.76817C7.6045 14.1063 6.71967 13.2603 5.68138 13.2603C4.64206 13.2603 3.75723 14.1063 3.59356 15.2549H0.663753V0.745079H3.59356C3.75723 1.89483 4.64206 2.7408 5.68138 2.7408C6.71964 2.7408 7.6045 1.89483 7.76817 0.745079H10.698V15.2549ZM25.3342 15.2549H11.3629V0.745079H25.3342V15.2549Z" fill="#4318FF"/>
<path d="M8.39107 7.62749H2.97166C2.88266 7.62749 2.79878 7.66646 2.73536 7.73638C2.67296 7.80631 2.63818 7.90145 2.63818 8.00004C2.63818 8.09976 2.67296 8.19376 2.73536 8.26369C2.79878 8.33361 2.88266 8.37258 2.97166 8.37258H8.39107C8.57417 8.37258 8.72249 8.20522 8.72249 8.00004C8.72249 7.79486 8.57417 7.62863 8.39107 7.62749Z" fill="#4318FF"/>
<path d="M8.39107 10.5127H2.97166C2.88266 10.5127 2.79878 10.5517 2.73536 10.6216C2.67296 10.6915 2.63818 10.7855 2.63818 10.8852C2.63818 10.9838 2.67296 11.079 2.73536 11.1489C2.79878 11.2188 2.88266 11.2578 2.97166 11.2578H8.39107C8.57417 11.2566 8.72249 11.0904 8.72249 10.8852C8.72249 10.6801 8.57417 10.5127 8.39107 10.5127Z" fill="#4318FF"/>
<path d="M2.63965 5.11602C2.63965 5.32121 2.78797 5.48856 2.97209 5.48856H8.3915C8.57461 5.48742 8.72293 5.3212 8.72293 5.11602C8.72293 4.91084 8.5746 4.74348 8.3915 4.74348H2.97209C2.78797 4.74348 2.63965 4.9097 2.63965 5.11602Z" fill="#4318FF"/>
<path d="M18.3485 13.3545C19.6159 13.3545 20.8312 12.7905 21.7272 11.7863C22.6232 10.7822 23.1266 9.42037 23.1266 8.0002C23.1266 6.58004 22.6233 5.21812 21.7272 4.21524C20.8311 3.21107 19.6158 2.64594 18.3485 2.64594C17.0821 2.64594 15.8659 3.21107 14.9709 4.21524C14.0748 5.21826 13.5715 6.58006 13.5715 8.0002C13.5726 9.42046 14.0758 10.7811 14.9719 11.7843C15.868 12.7885 17.0822 13.3536 18.3488 13.3547L18.3485 13.3545ZM19.1004 11.4035C18.8477 12.2369 18.5408 12.6094 18.3485 12.6094C18.1562 12.6094 17.8493 12.2369 17.5967 11.4035H17.5977C17.4647 10.9507 17.3675 10.4876 17.3051 10.0165C17.6488 10.0474 17.9987 10.0623 18.3485 10.0623C18.6984 10.0623 19.0492 10.0463 19.3919 10.0165C19.3305 10.4876 19.2323 10.9507 19.1004 11.4035ZM17.2233 9.2622C17.1906 8.85642 17.1732 8.43343 17.1732 8.00126C17.1732 7.56909 17.1906 7.14611 17.2233 6.74032C17.5854 6.70364 17.9629 6.68415 18.3485 6.68415C18.7342 6.68415 19.1116 6.70364 19.4738 6.74032C19.5065 7.14611 19.5239 7.56909 19.5239 8.00126C19.5239 8.43343 19.5065 8.85642 19.4738 9.2622C19.1116 9.29889 18.7342 9.31837 18.3485 9.31837C17.9629 9.31837 17.5854 9.29889 17.2233 9.2622ZM19.4195 12.45C19.7694 11.6613 19.9913 10.8096 20.0742 9.93386C20.8557 9.84101 21.6168 9.59225 22.3195 9.20023C21.9359 10.7833 20.8321 12.0202 19.4195 12.45ZM21.3856 8.84256C20.9825 8.99044 20.5683 9.10048 20.1478 9.16927C20.1755 8.78411 20.1888 8.39208 20.1888 8.00003C20.1888 7.60797 20.1744 7.21481 20.1478 6.83079C20.5683 6.90072 20.9825 7.00962 21.3856 7.15864C22.1293 7.44177 22.4617 7.78566 22.4617 8.00117C22.4617 8.21553 22.1293 8.55941 21.3856 8.84256ZM22.3195 6.80101C21.6168 6.40784 20.8557 6.15908 20.0742 6.06623C19.9913 5.19044 19.7694 4.33875 19.4195 3.5501C20.8322 3.98112 21.936 5.218 22.3195 6.80101ZM17.5977 4.59781C17.8504 3.76446 18.1573 3.3919 18.3496 3.3919C18.5419 3.3919 18.8488 3.76443 19.1015 4.59781H19.1004C19.2324 5.04947 19.3306 5.51371 19.392 5.98371C19.0483 5.95276 18.6984 5.93786 18.3486 5.93786C17.9987 5.93786 17.6489 5.9539 17.3052 5.98371C17.3676 5.51371 17.4648 5.04947 17.5977 4.59781ZM17.2786 3.5501C16.9277 4.33875 16.7057 5.19044 16.6229 6.06623C15.8413 6.15908 15.0813 6.40784 14.3775 6.80101C14.7622 5.21797 15.8659 3.98106 17.2786 3.5501ZM15.3125 7.1587C15.7155 7.00968 16.1298 6.90078 16.5492 6.83085C16.5216 7.21601 16.5083 7.60803 16.5083 8.00009C16.5083 8.39214 16.5226 8.78531 16.5492 9.16933C16.1298 9.10055 15.7155 8.9905 15.3125 8.84262C14.5688 8.55949 14.2364 8.2156 14.2364 8.00009C14.2353 7.78458 14.5688 7.44071 15.3125 7.1587ZM16.6229 9.93389C16.7057 10.8097 16.9277 11.6614 17.2786 12.45C15.8659 12.0202 14.7622 10.7833 14.3776 9.20031C15.0813 9.59234 15.8413 9.84104 16.6229 9.93389Z" fill="#4318FF"/>
</svg>
