<svg width="51" height="51" viewBox="0 0 51 51" fill="none" xmlns="http://www.w3.org/2000/svg">
<circle cx="25.5" cy="25.5" r="25" fill="#EFECFF" stroke="#E9E9E9"/>
<path d="M39.8802 17H19.2694C19.1698 17 19.0737 17.0394 19.003 17.11C18.9324 17.1807 18.893 17.2768 18.893 17.3764C18.893 18.282 18.1588 19.0162 17.2532 19.0162C16.3475 19.0162 15.6133 18.282 15.6133 17.3764C15.6133 17.2768 15.5739 17.1807 15.5033 17.11C15.4327 17.0394 15.3365 17 15.2369 17H11.1963C11.0967 17 11.0017 17.0394 10.9311 17.11C10.8604 17.1807 10.8211 17.2768 10.8211 17.3764V32.7883C10.8199 32.8879 10.8604 32.984 10.9311 33.0546C11.0017 33.1253 11.0967 33.1646 11.1963 33.1646H15.2369C15.3365 33.1646 15.4327 33.1253 15.5033 33.0546C15.5739 32.984 15.6133 32.8879 15.6133 32.7883C15.6133 31.8826 16.3476 31.1484 17.2532 31.1484C18.1588 31.1484 18.893 31.8827 18.893 32.7883C18.893 32.8879 18.9324 32.984 19.003 33.0546C19.0737 33.1253 19.1698 33.1646 19.2694 33.1646H39.8802C39.9798 33.1646 40.0748 33.1253 40.1454 33.0546C40.2161 32.984 40.2566 32.8879 40.2566 32.7883V17.3764C40.2566 17.2768 40.2161 17.1807 40.1454 17.11C40.0748 17.0394 39.9798 17 39.8802 17ZM22.9326 32.4119H19.6157C19.4304 31.2515 18.4286 30.3968 17.2531 30.3968C16.0765 30.3968 15.0747 31.2515 14.8895 32.4119H11.5725V17.7527H14.8895C15.0747 18.9143 16.0765 19.769 17.2531 19.769C18.4286 19.769 19.4304 18.9143 19.6157 17.7527H22.9326V32.4119ZM39.5028 32.4119H23.6854V17.7527H39.5028V32.4119Z" fill="#4318FF"/>
<path d="M20.3209 24.706H14.1854C14.0846 24.706 13.9897 24.7454 13.9179 24.816C13.8472 24.8867 13.8079 24.9828 13.8079 25.0824C13.8079 25.1831 13.8472 25.2781 13.9179 25.3487C13.9897 25.4194 14.0846 25.4588 14.1854 25.4588H20.3209C20.5282 25.4588 20.6961 25.2897 20.6961 25.0824C20.6961 24.8751 20.5282 24.7071 20.3209 24.706Z" fill="#4318FF"/>
<path d="M20.3209 27.6208H14.1854C14.0846 27.6208 13.9897 27.6602 13.9179 27.7309C13.8472 27.8015 13.8079 27.8965 13.8079 27.9972C13.8079 28.0968 13.8472 28.193 13.9179 28.2636C13.9897 28.3342 14.0846 28.3736 14.1854 28.3736H20.3209C20.5282 28.3725 20.6961 28.2045 20.6961 27.9972C20.6961 27.7899 20.5282 27.6208 20.3209 27.6208Z" fill="#4318FF"/>
<path d="M13.8093 22.1687C13.8093 22.376 13.9773 22.5451 14.1857 22.5451H20.3212C20.5285 22.5439 20.6964 22.376 20.6964 22.1687C20.6964 21.9614 20.5285 21.7923 20.3212 21.7923H14.1857C13.9772 21.7923 13.8093 21.9603 13.8093 22.1687Z" fill="#4318FF"/>
<path d="M31.594 30.4919C33.0289 30.4919 34.4047 29.9221 35.4191 28.9076C36.4335 27.8931 37.0034 26.5173 37.0034 25.0825C37.0034 23.6477 36.4336 22.2718 35.4191 21.2586C34.4046 20.2441 33.0288 19.6732 31.594 19.6732C30.1603 19.6732 28.7833 20.2441 27.7701 21.2586C26.7556 22.272 26.1858 23.6478 26.1858 25.0825C26.1869 26.5174 26.7567 27.8921 27.7712 28.9056C28.7857 29.9201 30.1604 30.491 31.5943 30.4922L31.594 30.4919ZM32.4452 28.5208C32.1592 29.3628 31.8117 29.7392 31.594 29.7392C31.3763 29.7392 31.0289 29.3628 30.7428 28.5208H30.744C30.5934 28.0634 30.4834 27.5955 30.4127 27.1195C30.8019 27.1508 31.1979 27.1659 31.594 27.1659C31.9901 27.1659 32.3873 27.1496 32.7753 27.1195C32.7058 27.5955 32.5946 28.0634 32.4452 28.5208ZM30.3201 26.3575C30.283 25.9475 30.2633 25.5202 30.2633 25.0836C30.2633 24.647 30.283 24.2196 30.3201 23.8097C30.73 23.7726 31.1574 23.7529 31.594 23.7529C32.0306 23.7529 32.458 23.7726 32.8679 23.8097C32.905 24.2196 32.9247 24.647 32.9247 25.0836C32.9247 25.5202 32.905 25.9475 32.8679 26.3575C32.458 26.3946 32.0306 26.4143 31.594 26.4143C31.1574 26.4143 30.73 26.3946 30.3201 26.3575ZM32.8065 29.5781C33.2026 28.7813 33.4539 27.9209 33.5477 27.0361C34.4325 26.9423 35.2941 26.691 36.0897 26.2949C35.6555 27.8942 34.4058 29.1439 32.8065 29.5781ZM35.0324 25.9336C34.5761 26.0829 34.1071 26.1941 33.6311 26.2636C33.6623 25.8745 33.6774 25.4784 33.6774 25.0823C33.6774 24.6863 33.6612 24.289 33.6311 23.9011C34.1071 23.9717 34.5761 24.0817 35.0324 24.2323C35.8743 24.5183 36.2507 24.8658 36.2507 25.0835C36.2507 25.3001 35.8743 25.6475 35.0324 25.9336ZM36.0897 23.871C35.2941 23.4738 34.4325 23.2224 33.5477 23.1286C33.4539 22.2438 33.2026 21.3834 32.8065 20.5866C34.4058 21.0221 35.6555 22.2717 36.0897 23.871ZM30.744 21.6451C31.0301 20.8032 31.3775 20.4268 31.5952 20.4268C31.8129 20.4268 32.1604 20.8032 32.4464 21.6451H32.4453C32.5947 22.1014 32.7058 22.5704 32.7753 23.0453C32.3862 23.014 31.9901 22.999 31.5941 22.999C31.198 22.999 30.8019 23.0152 30.4128 23.0453C30.4834 22.5704 30.5935 22.1014 30.744 21.6451ZM30.3827 20.5866C29.9855 21.3834 29.7341 22.2438 29.6403 23.1286C28.7555 23.2225 27.8951 23.4738 27.0983 23.871C27.5338 22.2717 28.7834 21.022 30.3827 20.5866ZM28.1568 24.2324C28.6131 24.0818 29.0821 23.9718 29.557 23.9011C29.5257 24.2903 29.5106 24.6863 29.5106 25.0824C29.5106 25.4785 29.5269 25.8757 29.557 26.2637C29.0821 26.1942 28.6131 26.083 28.1568 25.9336C27.3149 25.6476 26.9385 25.3001 26.9385 25.0824C26.9373 24.8647 27.3149 24.5173 28.1568 24.2324ZM29.6403 27.0361C29.7341 27.9209 29.9855 28.7814 30.3827 29.5781C28.7833 29.1439 27.5337 27.8942 27.0983 26.295C27.8951 26.691 28.7555 26.9423 29.6403 27.0361Z" fill="#4318FF"/>
</svg>
