<svg width="24" height="24" viewBox="0 0 24 24" fill="none" xmlns="http://www.w3.org/2000/svg">
<path d="M11.2729 3.32112L11.2729 11.2729L3.3211 11.2729C3.05308 11.2729 2.83639 11.4896 2.83639 11.7576L2.83639 12.2424C2.83639 12.5104 3.05308 12.7271 3.3211 12.7271L11.2729 12.7271L11.2729 20.6789C11.2729 20.9469 11.4896 21.1636 11.7576 21.1636L12.2423 21.1636C12.5104 21.1636 12.727 20.9469 12.727 20.6789L12.727 12.7271L20.6789 12.7271C20.9469 12.7271 21.1636 12.5104 21.1636 12.2424L21.1636 11.7576C21.1636 11.4896 20.9469 11.2729 20.6789 11.2729L12.727 11.2729L12.727 3.32112C12.727 3.05311 12.5103 2.83641 12.2423 2.83641L11.7576 2.83641C11.4925 2.83926 11.2758 3.05596 11.2729 3.32112Z" fill="black"/>
</svg>
