<svg width="36" height="29" viewBox="0 0 36 29" fill="none" xmlns="http://www.w3.org/2000/svg">
<path d="M6.3417 7.53369H8.24274C8.54438 8.22817 9.22483 9.61011 10.3121 10.95C9.47737 11.7637 8.45319 12.4441 7.25364 12.7037C6.87483 12.7879 6.63632 13.1597 6.7205 13.5385C6.79065 13.8682 7.08528 14.0926 7.40797 14.0926C7.45707 14.0926 7.50617 14.0856 7.55528 14.0786C9.04244 13.7559 10.2701 12.9492 11.2662 11.9882C12.2623 12.9422 13.4899 13.7489 14.9771 14.0786C15.0262 14.0926 15.0753 14.0926 15.1244 14.0926C15.4471 14.0926 15.7347 13.8682 15.8118 13.5385C15.896 13.1597 15.6575 12.7879 15.2787 12.7037C14.0721 12.4441 13.055 11.7637 12.2202 10.95C13.3075 9.61011 13.9809 8.23519 14.2896 7.53369H16.1906C16.5765 7.53369 16.8921 7.21802 16.8921 6.8322C16.8921 6.44638 16.5765 6.13071 16.1906 6.13071H11.9747V4.73474C11.9747 4.34892 11.659 4.03325 11.2732 4.03325C10.8874 4.03325 10.5717 4.34892 10.5717 4.73474V6.13071H6.35573C5.96991 6.13071 5.65424 6.44638 5.65424 6.8322C5.65424 7.21802 5.95588 7.53369 6.3417 7.53369ZM11.2592 9.88369C10.5927 9.02787 10.1087 8.16504 9.79304 7.53369H12.7253C12.4096 8.17205 11.9186 9.03489 11.2592 9.88369Z" fill="#A3AED0"/>
<path d="M23.2544 21.5702C23.6122 21.7175 24.019 21.5492 24.1733 21.1914L25.0221 19.1571H28.7471L29.5959 21.1914C29.7081 21.458 29.9677 21.6193 30.2412 21.6193C30.3324 21.6193 30.4236 21.5983 30.5148 21.5632C30.8726 21.4159 31.0409 21.002 30.8936 20.6443L29.8624 18.182C29.8624 18.182 29.8624 18.175 29.8554 18.175L27.5265 12.6122C27.4142 12.3526 27.1617 12.1843 26.8811 12.1843C26.6005 12.1843 26.341 12.3526 26.2357 12.6122L23.9068 18.182L22.8756 20.6443C22.7283 21.009 22.8966 21.4229 23.2544 21.5702ZM26.8811 14.7096L28.1578 17.7611H25.6044L26.8811 14.7096Z" fill="#A3AED0"/>
<path d="M3.34612 18.1336H3.83716V21.3184C3.83716 21.599 4.00552 21.8585 4.27209 21.9637C4.35627 21.9988 4.44746 22.0199 4.53865 22.0199C4.72104 22.0199 4.90343 21.9497 5.03671 21.8164L8.71253 18.1406H15.4328V21.8585C15.4328 23.507 16.7727 24.8469 18.4212 24.8469H27.4143L30.564 27.9966C30.6973 28.1299 30.8797 28.2 31.0621 28.2C31.1533 28.2 31.2445 28.186 31.3286 28.1439C31.5882 28.0387 31.7636 27.7791 31.7636 27.4985V24.8469H32.0862C33.7347 24.8469 35.0746 23.507 35.0746 21.8585V11.9675C35.0746 10.319 33.7347 8.97912 32.0862 8.97912H22.5179V3.34614C22.5179 1.50122 21.0167 2.44853e-05 19.1718 2.44853e-05H3.34612C1.50119 -0.00699043 0 1.4942 0 3.33913V14.7875C0 16.6324 1.50119 18.1336 3.34612 18.1336ZM32.0862 10.3751C32.9631 10.3751 33.6716 11.0836 33.6716 11.9605V21.8515C33.6716 22.7284 32.9631 23.4369 32.0862 23.4369H31.0621C30.6762 23.4369 30.3606 23.7525 30.3606 24.1384V25.8009L28.2 23.6403C28.0667 23.507 27.8913 23.4369 27.7019 23.4369H18.4212C17.5443 23.4369 16.8358 22.7284 16.8358 21.8515V18.1336H19.1718C21.0167 18.1336 22.5179 16.6324 22.5179 14.7875V10.3751H32.0862ZM1.40298 3.33913C1.40298 2.26584 2.27283 1.39599 3.34612 1.39599H19.1648C20.238 1.39599 21.1079 2.26584 21.1079 3.33913V14.7875C21.1079 15.8608 20.238 16.7306 19.1648 16.7306H8.4179C8.2285 16.7306 8.05313 16.8078 7.91984 16.934L5.23313 19.6208V17.4321C5.23313 17.0463 4.91746 16.7306 4.53164 16.7306H3.3391C2.27283 16.7306 1.40298 15.8608 1.40298 14.7875V3.33913Z" fill="#A3AED0"/>
</svg>
