<svg width="28" height="26" viewBox="0 0 28 26" fill="none" xmlns="http://www.w3.org/2000/svg">
<path d="M21.2109 0C21.0173 0.00665405 20.851 0.141956 20.8018 0.331609L19.8075 4.22887C19.7463 4.4651 19.8863 4.70687 20.1204 4.76896C20.3544 4.82995 20.5929 4.688 20.653 4.45066L21.6506 0.554537H21.6516C21.6801 0.440308 21.6637 0.319424 21.6035 0.217392C21.5445 0.116469 21.4471 0.043274 21.3344 0.0144399C21.294 0.00334943 21.2524 -0.0010867 21.2108 0.0011315L21.2109 0ZM14.3408 1.46837C14.028 1.47724 13.7119 1.56042 13.4221 1.7301C12.7198 2.14154 12.3676 2.93783 12.4705 3.70863L9.81912 7.41283C8.02532 9.91813 5.73154 12.0108 3.08797 13.559L0.899301 14.8432C0.0406801 15.3467 -0.255738 16.4713 0.240831 17.3419L2.6406 21.5563C3.1328 22.4213 4.23097 22.7263 5.0874 22.2372L7.10106 25.7773L7.09888 25.7762C7.15685 25.8782 7.25201 25.9536 7.36576 25.9847C7.47842 26.0157 7.59873 25.9991 7.69936 25.9392L9.61457 24.8158C9.79395 24.7126 9.87817 24.4953 9.81473 24.2956L8.54923 20.2666C10.8538 19.1132 13.3422 18.3791 15.9059 18.1062L20.397 17.6316C21.003 18.1051 21.8572 18.1905 22.5583 17.7802C23.4837 17.2379 23.8041 16.0301 23.2693 15.0908L16.0756 2.45327C15.7081 1.80782 15.0299 1.45176 14.3408 1.46837ZM14.3671 2.35005C14.7444 2.33786 15.1108 2.53526 15.3176 2.89681L22.5113 15.5343C22.811 16.0611 22.6414 16.7099 22.123 17.0137C21.6034 17.3176 20.9636 17.1435 20.6639 16.6167L13.4679 3.97923C13.1682 3.45243 13.34 2.80145 13.8595 2.49755C14.0214 2.40217 14.1953 2.35448 14.367 2.34894L14.3671 2.35005ZM27.2825 3.85945C27.2136 3.86277 27.1469 3.88273 27.0867 3.91711L23.6762 5.9156C23.5756 5.97327 23.5023 6.07087 23.4717 6.18398C23.4421 6.29711 23.4574 6.4191 23.5154 6.52113C23.5723 6.62316 23.6685 6.69746 23.7801 6.72852C23.8917 6.75846 24.012 6.74294 24.1126 6.68416L27.5231 4.68678V4.68789C27.6238 4.62911 27.6971 4.53152 27.7277 4.41839C27.7583 4.30416 27.7419 4.18328 27.6839 4.08125C27.6019 3.93596 27.4466 3.85057 27.2825 3.85945ZM12.8533 4.6768L19.7584 16.8064L15.8153 17.2245C13.3226 17.4896 10.8955 18.1705 8.63136 19.2385L5.21328 13.2343C7.25648 11.7793 9.05249 9.98922 10.5248 7.93313L12.8533 4.6768ZM23.73 10.0535V10.0546C23.5364 10.0569 23.3669 10.1888 23.3144 10.3785C23.2827 10.4916 23.2969 10.6136 23.3549 10.7156C23.4117 10.8188 23.5069 10.8942 23.6185 10.9252L27.4445 11.9987C27.5572 12.0309 27.6775 12.0154 27.7781 11.9577C27.8798 11.8989 27.9531 11.8024 27.9837 11.6882C28.0155 11.574 28.0001 11.4531 27.9433 11.35C27.8853 11.2479 27.7901 11.1725 27.6775 11.1415L23.8537 10.0702C23.8132 10.0591 23.7727 10.0535 23.7312 10.0535L23.73 10.0535ZM4.48498 13.731L7.84173 19.6299C7.50813 19.8029 7.17889 19.9848 6.85296 20.1755L4.66648 21.4565C4.21692 21.7193 3.65363 21.5685 3.3944 21.1127L0.997907 16.8971C0.738679 16.4413 0.887434 15.8702 1.33697 15.6073L3.52345 14.3275C3.84941 14.1368 4.16988 13.9382 4.48489 13.732L4.48498 13.731ZM7.75969 20.6792L8.87208 24.2259L7.6383 24.9467L5.8456 21.7916L7.29269 20.9454C7.44691 20.8545 7.60333 20.7669 7.75974 20.6804L7.75969 20.6792Z" fill="#4318FF"/>
</svg>
