<svg width="51" height="51" viewBox="0 0 51 51" fill="none" xmlns="http://www.w3.org/2000/svg">
<circle cx="25.5" cy="25.5" r="25" fill="#EFECFF" stroke="#E9E9E9"/>
<path d="M33.2109 12C33.0173 12.0067 32.851 12.142 32.8018 12.3316L31.8075 16.2289C31.7463 16.4651 31.8863 16.7069 32.1204 16.769C32.3544 16.83 32.5929 16.688 32.653 16.4507L33.6506 12.5545H33.6516C33.6801 12.4403 33.6637 12.3194 33.6035 12.2174C33.5445 12.1165 33.4471 12.0433 33.3344 12.0144C33.294 12.0033 33.2524 11.9989 33.2108 12.0011L33.2109 12ZM26.3408 13.4684C26.028 13.4772 25.7119 13.5604 25.4221 13.7301C24.7198 14.1415 24.3676 14.9378 24.4705 15.7086L21.8191 19.4128C20.0253 21.9181 17.7315 24.0108 15.088 25.559L12.8993 26.8432C12.0407 27.3467 11.7443 28.4713 12.2408 29.3419L14.6406 33.5563C15.1328 34.4213 16.231 34.7263 17.0874 34.2372L19.1011 37.7773L19.0989 37.7762C19.1568 37.8782 19.252 37.9536 19.3658 37.9847C19.4784 38.0157 19.5987 37.9991 19.6994 37.9392L21.6146 36.8158C21.794 36.7126 21.8782 36.4953 21.8147 36.2956L20.5492 32.2666C22.8538 31.1132 25.3422 30.3791 27.9059 30.1062L32.397 29.6316C33.003 30.1051 33.8572 30.1905 34.5583 29.7802C35.4837 29.2378 35.8041 28.0301 35.2693 27.0908L28.0756 14.4533C27.7081 13.8078 27.0299 13.4518 26.3408 13.4684ZM26.3671 14.3501C26.7444 14.3379 27.1108 14.5353 27.3176 14.8968L34.5113 27.5343C34.811 28.0611 34.6414 28.7099 34.123 29.0137C33.6034 29.3176 32.9636 29.1435 32.6639 28.6167L25.4679 15.9792C25.1682 15.4524 25.34 14.8014 25.8595 14.4975C26.0214 14.4022 26.1953 14.3545 26.367 14.3489L26.3671 14.3501ZM39.2825 15.8594C39.2136 15.8628 39.1469 15.8827 39.0867 15.9171L35.6762 17.9156C35.5756 17.9733 35.5023 18.0709 35.4717 18.184C35.4421 18.2971 35.4574 18.4191 35.5154 18.5211C35.5723 18.6232 35.6685 18.6975 35.7801 18.7285C35.8917 18.7585 36.012 18.7429 36.1126 18.6842L39.5231 16.6868V16.6879C39.6238 16.6291 39.6971 16.5315 39.7277 16.4184C39.7583 16.3042 39.7419 16.1833 39.6839 16.0812C39.6019 15.936 39.4466 15.8506 39.2825 15.8594ZM24.8533 16.6768L31.7584 28.8064L27.8153 29.2245C25.3226 29.4896 22.8955 30.1705 20.6314 31.2385L17.2133 25.2343C19.2565 23.7793 21.0525 21.9892 22.5248 19.9331L24.8533 16.6768ZM35.73 22.0535V22.0546C35.5364 22.0569 35.3669 22.1888 35.3144 22.3785C35.2827 22.4916 35.2969 22.6136 35.3549 22.7156C35.4117 22.8188 35.5069 22.8942 35.6185 22.9252L39.4445 23.9987C39.5572 24.0309 39.6775 24.0154 39.7781 23.9577C39.8798 23.8989 39.9531 23.8024 39.9837 23.6882C40.0155 23.574 40.0001 23.4531 39.9433 23.35C39.8853 23.2479 39.7901 23.1725 39.6775 23.1415L35.8537 22.0702C35.8132 22.0591 35.7727 22.0535 35.7312 22.0535L35.73 22.0535ZM16.485 25.731L19.8417 31.6299C19.5081 31.8029 19.1789 31.9848 18.853 32.1755L16.6665 33.4565C16.2169 33.7193 15.6536 33.5685 15.3944 33.1127L12.9979 28.8971C12.7387 28.4413 12.8874 27.8702 13.337 27.6073L15.5235 26.3275C15.8494 26.1368 16.1699 25.9382 16.4849 25.732L16.485 25.731ZM19.7597 32.6792L20.8721 36.2259L19.6383 36.9467L17.8456 33.7916L19.2927 32.9454C19.4469 32.8545 19.6033 32.7669 19.7597 32.6804L19.7597 32.6792Z" fill="#4318FF"/>
</svg>
