<svg width="50" height="76" viewBox="0 0 50 76" fill="none" xmlns="http://www.w3.org/2000/svg">
<path d="M49.4014 40.4342C49.4416 38.8382 48.1925 37.4722 46.5563 37.4358C45.0369 37.4358 43.5943 38.6447 43.5578 40.2809C43.2474 50.489 34.9494 58.513 24.7011 58.513C14.4565 58.513 6.15854 50.489 5.84439 40.2809C5.80422 38.6849 4.48212 37.3993 2.8459 37.4358C1.24989 37.4759 -0.0357073 38.8382 0.000756975 40.4342C0.391551 52.8227 9.74139 62.7569 21.7793 64.1192V73.0782C21.7793 74.6742 23.1051 76 24.7011 76C26.2971 76 27.6229 74.6742 27.6229 73.0782V64.1192C39.6608 62.7167 49.0106 52.8227 49.4014 40.4342Z" fill="white"/>
<path d="M24.7011 54.9666C33.1926 54.9666 40.0881 48.0711 40.0881 39.5796V15.387C40.0881 6.89549 33.1926 0 24.7011 0C16.2096 0 9.31409 6.89549 9.31409 15.387V39.5796C9.31409 48.0711 16.2096 54.9666 24.7011 54.9666Z" fill="white"/>
</svg>
