<svg width="37" height="22" viewBox="0 0 37 22" fill="none" xmlns="http://www.w3.org/2000/svg">
<rect y="0.5" width="37" height="21" rx="4" fill="black"/>
<path d="M12.432 16.5V7.492L10.496 7.988V6.5L13.216 5.3H14.416V16.5H12.432ZM21.1473 16.692C20.1339 16.692 19.2593 16.452 18.5233 15.972C17.7979 15.4813 17.2379 14.804 16.8433 13.94C16.4593 13.0653 16.2673 12.052 16.2673 10.9C16.2673 9.748 16.4593 8.74 16.8433 7.876C17.2379 7.00133 17.7979 6.324 18.5233 5.844C19.2486 5.35333 20.1179 5.108 21.1313 5.108C22.1446 5.108 23.0139 5.35333 23.7393 5.844C24.4646 6.324 25.0193 7.00133 25.4033 7.876C25.7979 8.74 25.9953 9.748 25.9953 10.9C25.9953 12.052 25.7979 13.0653 25.4033 13.94C25.0193 14.804 24.4646 15.4813 23.7393 15.972C23.0139 16.452 22.1499 16.692 21.1473 16.692ZM21.1313 14.964C21.7073 14.964 22.2086 14.804 22.6353 14.484C23.0726 14.1533 23.4139 13.684 23.6593 13.076C23.9046 12.468 24.0273 11.7427 24.0273 10.9C24.0273 10.0573 23.9046 9.332 23.6593 8.724C23.4139 8.116 23.0726 7.652 22.6353 7.332C22.2086 7.00133 21.7073 6.836 21.1313 6.836C20.5659 6.836 20.0646 7.00133 19.6273 7.332C19.1899 7.652 18.8433 8.116 18.5873 8.724C18.3419 9.332 18.2193 10.0573 18.2193 10.9C18.2193 11.7427 18.3419 12.468 18.5873 13.076C18.8433 13.684 19.1899 14.1533 19.6273 14.484C20.0646 14.804 20.5659 14.964 21.1313 14.964Z" fill="white"/>
</svg>
