<svg width="28" height="27" viewBox="0 0 28 27" fill="none" xmlns="http://www.w3.org/2000/svg">
<path d="M24.6261 14.5747C24.6261 14.3372 24.4334 14.1445 24.1959 14.1445H12.7485V2.71081C12.7485 2.47334 12.5558 2.28067 12.3184 2.28067C12.3164 2.28067 12.3148 2.28176 12.3128 2.28179C12.3108 2.28176 12.3092 2.28067 12.3072 2.28067C5.52069 2.28067 0 7.80164 0 14.5881C0 21.3746 5.52069 26.8955 12.3072 26.8955C13.0326 26.8955 13.7395 26.8202 14.4307 26.6992C14.4341 26.6993 14.4371 26.7009 14.4405 26.7009C14.4663 26.7009 14.492 26.6987 14.5178 26.6939C14.5299 26.6917 14.539 26.684 14.5507 26.6808C17.4239 26.1487 19.9509 24.6225 21.7533 22.4647C21.7593 22.4583 21.7679 22.4559 21.7736 22.4491C21.7778 22.444 21.7787 22.4376 21.7826 22.4324C23.539 20.3146 24.5986 17.601 24.612 14.6442C24.616 14.6207 24.6261 14.5993 24.6261 14.5747ZM21.3704 21.5538L13.5066 15.0048H23.7335C23.6443 17.4648 22.7791 19.7253 21.3704 21.5538ZM0.86028 14.5881C0.86028 8.41745 5.77108 3.38511 11.8882 3.16216V14.5747C11.8882 14.5814 11.8918 14.587 11.8921 14.5937C11.8927 14.6068 11.8936 14.619 11.8954 14.6319C11.8962 14.6385 11.8937 14.6447 11.8949 14.6514L13.9374 25.9054C13.4034 25.9821 12.862 26.0353 12.3072 26.0353C5.99508 26.0353 0.86028 20.9002 0.86028 14.5881ZM14.7852 25.7574L12.9532 15.6628L20.8201 22.2143C19.2509 23.964 17.1588 25.231 14.7852 25.7574Z" fill="#4318FF"/>
<path d="M14.9345 0C14.8203 0 14.7111 0.0453663 14.6304 0.126018C14.5498 0.206669 14.5044 0.316164 14.5044 0.43042L14.51 12.301C14.51 12.5382 14.7027 12.7309 14.9401 12.7309L26.8121 12.7376C26.9264 12.7376 27.0356 12.6922 27.1162 12.6116C27.1969 12.5309 27.2423 12.4217 27.2423 12.3074C27.2423 5.52097 21.721 0 14.9345 0ZM15.3703 11.8709L15.3647 0.868121C21.3357 1.08991 26.1523 5.90658 26.3741 11.877L15.3703 11.8709Z" fill="#4318FF"/>
</svg>
