<svg width="51" height="51" viewBox="0 0 51 51" fill="none" xmlns="http://www.w3.org/2000/svg">
<circle cx="25.5" cy="25.5" r="25" fill="white" stroke="#E9E9E9"/>
<path d="M36.6261 26.5747C36.6261 26.3372 36.4334 26.1445 36.1959 26.1445H24.7485V14.7108C24.7485 14.4733 24.5558 14.2807 24.3184 14.2807C24.3164 14.2807 24.3148 14.2818 24.3128 14.2818C24.3108 14.2818 24.3092 14.2807 24.3072 14.2807C17.5207 14.2807 12 19.8016 12 26.5881C12 33.3746 17.5207 38.8955 24.3072 38.8955C25.0326 38.8955 25.7395 38.8202 26.4307 38.6992C26.4341 38.6993 26.4371 38.7009 26.4405 38.7009C26.4663 38.7009 26.492 38.6987 26.5178 38.6939C26.5299 38.6917 26.539 38.684 26.5507 38.6808C29.4239 38.1487 31.9509 36.6225 33.7533 34.4647C33.7593 34.4583 33.7679 34.4559 33.7736 34.4491C33.7778 34.444 33.7787 34.4376 33.7826 34.4324C35.539 32.3146 36.5986 29.601 36.612 26.6442C36.616 26.6207 36.6261 26.5993 36.6261 26.5747ZM33.3704 33.5538L25.5066 27.0048H35.7335C35.6443 29.4648 34.7791 31.7253 33.3704 33.5538ZM12.8603 26.5881C12.8603 20.4174 17.7711 15.3851 23.8882 15.1622V26.5747C23.8882 26.5814 23.8918 26.587 23.8921 26.5937C23.8927 26.6068 23.8936 26.619 23.8954 26.6319C23.8962 26.6385 23.8937 26.6447 23.8949 26.6514L25.9374 37.9054C25.4034 37.9821 24.862 38.0353 24.3072 38.0353C17.9951 38.0353 12.8603 32.9002 12.8603 26.5881ZM26.7852 37.7574L24.9532 27.6628L32.8201 34.2143C31.2509 35.964 29.1588 37.231 26.7852 37.7574Z" fill="#4318FF"/>
<path d="M26.9345 12C26.8203 12 26.7111 12.0454 26.6304 12.126C26.5498 12.2067 26.5044 12.3162 26.5044 12.4304L26.51 24.301C26.51 24.5382 26.7027 24.7309 26.9401 24.7309L38.8121 24.7376C38.9264 24.7376 39.0356 24.6922 39.1162 24.6116C39.1969 24.5309 39.2423 24.4217 39.2423 24.3074C39.2423 17.521 33.721 12 26.9345 12ZM27.3703 23.8709L27.3647 12.8681C33.3357 13.0899 38.1523 17.9066 38.3741 23.877L27.3703 23.8709Z" fill="#4318FF"/>
</svg>
