<svg width="28" height="29" viewBox="0 0 28 29" fill="none" xmlns="http://www.w3.org/2000/svg">
<path d="M1.02036 5.42122C0.993214 5.28218 1.04751 5.17096 1.1561 5.05973L9.57165 1.02781C9.62595 1.02781 9.68024 1 9.73454 1H9.76168C9.81598 1 9.84312 1 9.89742 1.02781L18.2587 5.05973L26.6471 1.02781H26.7014H26.7557H26.7828H26.8371C26.8643 1.02781 26.8643 1.05561 26.8914 1.05561C26.9186 1.05561 26.9186 1.05561 26.9457 1.08342C26.9457 1.08342 26.9729 1.11123 26.9729 1.13903L27 1.16684V1.22245V1.27806V23.6066V23.6344V23.69C27 23.7178 26.9729 23.7178 26.9729 23.7456C26.9729 23.7734 26.9457 23.7734 26.9457 23.8012C26.9186 23.829 26.9186 23.829 26.8914 23.829L26.8643 23.8847L18.3673 27.9722C18.2858 28 18.2044 28 18.1229 27.9722L9.76168 23.9403L1.37327 27.9722C1.34612 28 1.29183 28 1.26468 28C1.23754 28 1.21039 28 1.18324 27.9722H1.1561C1.12895 27.9722 1.1018 27.9444 1.1018 27.9444L1.07465 27.9166C1.04751 27.8888 1.04751 27.861 1.02036 27.8332V27.7776V27.6941V5.53244C0.993214 5.50463 0.993214 5.47683 1.02036 5.42122ZM18.5301 27.2492L26.4571 23.4398V1.75077L18.503 5.56025V27.2492H18.5301ZM10.0331 23.4119L17.9601 27.2214V5.53244L10.0331 1.72297V12.6231V23.4119ZM1.5633 27.2214L9.46306 23.4398V12.6509V1.75077L1.5633 5.53244V27.2214Z" fill="#4318FF" stroke="#4318FF" stroke-width="0.5"/>
</svg>
