<svg width="51" height="51" viewBox="0 0 51 51" fill="none" xmlns="http://www.w3.org/2000/svg">
<circle cx="25.5" cy="25.5" r="25" fill="white" stroke="#E9E9E9"/>
<path d="M13.0204 16.4212C12.9932 16.2822 13.0475 16.171 13.1561 16.0597L21.5717 12.0278C21.6259 12.0278 21.6802 12 21.7345 12H21.7617C21.816 12 21.8431 12 21.8974 12.0278L30.2587 16.0597L38.6471 12.0278H38.7014H38.7557H38.7828H38.8371C38.8643 12.0278 38.8643 12.0556 38.8914 12.0556C38.9186 12.0556 38.9186 12.0556 38.9457 12.0834C38.9457 12.0834 38.9729 12.1112 38.9729 12.139L39 12.1668V12.2225V12.2781V34.6066V34.6344V34.69C39 34.7178 38.9729 34.7178 38.9729 34.7456C38.9729 34.7734 38.9457 34.7734 38.9457 34.8012C38.9186 34.829 38.9186 34.829 38.8914 34.829L38.8643 34.8847L30.3673 38.9722C30.2858 39 30.2044 39 30.1229 38.9722L21.7617 34.9403L13.3733 38.9722C13.3461 39 13.2918 39 13.2647 39C13.2375 39 13.2104 39 13.1832 38.9722H13.1561C13.1289 38.9722 13.1018 38.9444 13.1018 38.9444L13.0747 38.9166C13.0475 38.8888 13.0475 38.861 13.0204 38.8332V38.7776V38.6941V16.5324C12.9932 16.5046 12.9932 16.4768 13.0204 16.4212ZM30.5301 38.2492L38.4571 34.4398V12.7508L30.503 16.5602V38.2492H30.5301ZM22.0332 34.4119L29.9601 38.2214V16.5324L22.0332 12.723V23.6231V34.4119ZM13.5633 38.2214L21.4631 34.4398V23.6509V12.7508L13.5633 16.5324V38.2214Z" fill="#4318FF" stroke="#4318FF" stroke-width="0.5"/>
</svg>
