<svg width="76" height="30" viewBox="0 0 76 30" fill="none" xmlns="http://www.w3.org/2000/svg">
<rect width="76" height="30" rx="8" fill="#010101"/>
<path d="M24.34 20.168C23.6307 20.168 22.996 20.0467 22.436 19.804C21.8853 19.5613 21.4467 19.2067 21.12 18.74C20.8027 18.2733 20.6393 17.7087 20.63 17.046H22.632C22.6413 17.3353 22.716 17.5967 22.856 17.83C22.996 18.0633 23.1873 18.25 23.43 18.39C23.682 18.5207 23.9807 18.586 24.326 18.586C24.6247 18.586 24.8813 18.5393 25.096 18.446C25.32 18.3433 25.4927 18.2033 25.614 18.026C25.7353 17.8487 25.796 17.6387 25.796 17.396C25.796 17.116 25.726 16.8827 25.586 16.696C25.4553 16.5093 25.2687 16.3507 25.026 16.22C24.7927 16.0893 24.5173 15.9727 24.2 15.87C23.892 15.758 23.5653 15.6413 23.22 15.52C22.4453 15.268 21.8527 14.932 21.442 14.512C21.0407 14.092 20.84 13.5367 20.84 12.846C20.84 12.258 20.98 11.754 21.26 11.334C21.5493 10.914 21.946 10.592 22.45 10.368C22.954 10.144 23.528 10.032 24.172 10.032C24.8347 10.032 25.4133 10.1487 25.908 10.382C26.412 10.606 26.8087 10.9327 27.098 11.362C27.3967 11.7913 27.5507 12.2953 27.56 12.874H25.544C25.5347 12.6593 25.4693 12.4587 25.348 12.272C25.236 12.076 25.0773 11.922 24.872 11.81C24.6667 11.6887 24.424 11.628 24.144 11.628C23.9013 11.6187 23.6773 11.656 23.472 11.74C23.276 11.824 23.1173 11.95 22.996 12.118C22.884 12.2767 22.828 12.4773 22.828 12.72C22.828 12.9533 22.884 13.1493 22.996 13.308C23.1173 13.4667 23.2807 13.6067 23.486 13.728C23.6913 13.84 23.934 13.9473 24.214 14.05C24.494 14.1433 24.7973 14.2413 25.124 14.344C25.6093 14.512 26.0573 14.7127 26.468 14.946C26.8787 15.17 27.2053 15.464 27.448 15.828C27.6907 16.192 27.812 16.6727 27.812 17.27C27.812 17.7833 27.6767 18.2593 27.406 18.698C27.1353 19.1367 26.7433 19.4913 26.23 19.762C25.726 20.0327 25.096 20.168 24.34 20.168ZM32.5512 20C32.0566 20 31.6226 19.9253 31.2492 19.776C30.8852 19.6173 30.6006 19.3607 30.3952 19.006C30.1899 18.642 30.0872 18.1473 30.0872 17.522V14.526H28.8832V12.944H30.0872L30.2972 11.026H31.9772V12.944H33.8392V14.526H31.9772V17.55C31.9772 17.8673 32.0472 18.0867 32.1872 18.208C32.3272 18.3293 32.5652 18.39 32.9012 18.39H33.8252V20H32.5512ZM37.8099 20.168C37.2219 20.168 36.7365 20.0747 36.3539 19.888C35.9712 19.692 35.6865 19.4353 35.4999 19.118C35.3225 18.7913 35.2339 18.432 35.2339 18.04C35.2339 17.6107 35.3412 17.2327 35.5559 16.906C35.7799 16.5793 36.1112 16.3227 36.5499 16.136C36.9979 15.9493 37.5579 15.856 38.2299 15.856H39.9799C39.9799 15.5107 39.9332 15.226 39.8399 15.002C39.7465 14.7687 39.6019 14.596 39.4059 14.484C39.2099 14.372 38.9485 14.316 38.6219 14.316C38.2672 14.316 37.9639 14.3953 37.7119 14.554C37.4692 14.7033 37.3199 14.9367 37.2639 15.254H35.4299C35.4765 14.75 35.6399 14.316 35.9199 13.952C36.2092 13.5787 36.5872 13.2893 37.0539 13.084C37.5299 12.8787 38.0572 12.776 38.6359 12.776C39.2985 12.776 39.8725 12.888 40.3579 13.112C40.8432 13.336 41.2165 13.658 41.4779 14.078C41.7392 14.498 41.8699 15.016 41.8699 15.632V20H40.2739L40.0639 18.922C39.9612 19.1087 39.8399 19.2767 39.6999 19.426C39.5599 19.5753 39.3965 19.706 39.2099 19.818C39.0232 19.93 38.8132 20.014 38.5799 20.07C38.3465 20.1353 38.0899 20.168 37.8099 20.168ZM38.2579 18.712C38.5005 18.712 38.7152 18.67 38.9019 18.586C39.0979 18.4927 39.2659 18.3713 39.4059 18.222C39.5459 18.0633 39.6532 17.886 39.7279 17.69C39.8119 17.4847 39.8679 17.2653 39.8959 17.032V17.018H38.4539C38.1645 17.018 37.9265 17.0553 37.7399 17.13C37.5625 17.1953 37.4319 17.2933 37.3479 17.424C37.2639 17.5547 37.2219 17.704 37.2219 17.872C37.2219 18.0587 37.2639 18.2127 37.3479 18.334C37.4319 18.4553 37.5532 18.5487 37.7119 18.614C37.8705 18.6793 38.0525 18.712 38.2579 18.712ZM43.633 20V12.944H45.313L45.495 14.246C45.663 13.938 45.873 13.6767 46.125 13.462C46.3863 13.2473 46.6803 13.0793 47.007 12.958C47.343 12.8367 47.7117 12.776 48.113 12.776V14.778H47.469C47.189 14.778 46.9277 14.8107 46.685 14.876C46.4517 14.9413 46.2463 15.0487 46.069 15.198C45.8917 15.338 45.7563 15.534 45.663 15.786C45.5697 16.038 45.523 16.3553 45.523 16.738V20H43.633ZM52.5395 20C52.0448 20 51.6108 19.9253 51.2375 19.776C50.8735 19.6173 50.5888 19.3607 50.3835 19.006C50.1782 18.642 50.0755 18.1473 50.0755 17.522V14.526H48.8715V12.944H50.0755L50.2855 11.026H51.9655V12.944H53.8275V14.526H51.9655V17.55C51.9655 17.8673 52.0355 18.0867 52.1755 18.208C52.3155 18.3293 52.5535 18.39 52.8895 18.39H53.8135V20H52.5395Z" fill="white"/>
</svg>
