<svg width="174" height="38" viewBox="0 0 174 38" fill="none" xmlns="http://www.w3.org/2000/svg">
<path d="M151.958 31.792H140.954L139.19 37H131.672L142.34 7.516H150.656L161.324 37H153.722L151.958 31.792ZM150.11 26.248L146.456 15.454L142.844 26.248H150.11ZM170.913 7.516V37H163.731V7.516H170.913Z" fill="#2B3674"/>
<path d="M39.5891 3.04759C31.387 4.69207 24.5655 6.03202 24.4437 5.99142C24.3422 5.95082 23.4286 4.85449 22.4135 3.55515L20.6066 1.20009H19.3479H18.0688L18.5967 2.35731C18.8809 3.00699 19.8148 5.11842 20.6472 7.04714C21.4999 8.97585 22.2917 10.5188 22.4135 10.4782C22.5353 10.4376 29.905 8.40739 38.777 5.97112C47.649 3.53485 54.9984 1.46401 55.0796 1.40311C55.2217 1.28129 54.7142 -0.0586552 54.5518 0.00225157C54.5315 0.0225538 47.7912 1.38281 39.5891 3.04759Z" fill="#2B3674"/>
<path d="M0 4.34712V7.49397H5.17704H10.3541V22.1116V36.7292H14.11H17.8659V18.9647V1.20027H8.93294H0V4.34712Z" fill="#2B3674"/>
<path d="M109.022 9.42268V13.9907H107.195H105.368V16.833V19.6753H107.195H109.022V24.223C109.022 28.1211 109.083 28.9535 109.408 30.0092C110.403 33.1966 113.266 35.8156 116.494 36.5059C117.082 36.6277 118.889 36.7292 120.493 36.7292H123.437V33.8057V30.8822L120.554 30.801C117.874 30.7401 117.59 30.6994 116.961 30.2528C115.702 29.3392 115.722 29.6031 115.722 16.63V4.85467H112.372H109.022V9.42268Z" fill="#2B3674"/>
<path d="M86.9329 11.351C81.6746 12.7722 77.7563 17.259 77.1675 22.5376C76.0306 32.7699 86.6283 40.302 95.9267 35.8355C98.3426 34.658 101.388 31.8766 100.698 31.4502C100.535 31.3487 99.2156 30.76 97.7336 30.1103L95.0334 28.9531L94.2416 29.6637C93.1859 30.6179 92.2114 30.9427 90.3436 30.9427C88.4961 30.9427 87.2577 30.4148 85.8771 29.014C82.4258 25.5829 83.3191 19.7358 87.6028 17.6244C89.024 16.9341 91.4399 16.9341 92.8205 17.6041C94.0183 18.1929 95.1755 19.3501 95.9064 20.6697L96.4546 21.7052H91.6836C89.0443 21.7052 86.8922 21.7661 86.8922 21.827C86.8922 21.9082 87.5825 23.106 88.4555 24.4663L89.9985 26.9838H96.5561H103.114L103.256 25.8468C103.601 22.9639 102.931 19.7561 101.469 17.2996C100.616 15.8378 98.4442 13.6655 96.9824 12.8128C94.9725 11.5946 93.1656 11.0871 90.6481 11.0059C88.9022 10.9653 88.0901 11.0262 86.9329 11.351Z" fill="#2B3674"/>
<path d="M38.1273 11.4734C36.5234 11.8592 35.0414 12.6307 33.8841 13.727L32.9096 14.6406L32.8487 13.1382L32.7878 11.6561L29.1943 11.5952L25.5806 11.5546V24.3451V37.1355L29.1943 37.0949L32.7878 37.034L32.8893 29.7252C32.9908 22.5585 32.9908 22.396 33.4578 21.5027C34.1684 20.1425 35.6098 18.7619 37.031 18.1326C38.6551 17.4017 40.9493 17.3408 42.6141 18.0108C43.2231 18.2544 43.7713 18.3965 43.8322 18.3559C43.8931 18.295 44.6443 16.9956 45.497 15.4527L47.0805 12.6713L46.1263 12.2449C43.8322 11.2095 40.5026 10.8847 38.1273 11.4734Z" fill="#2B3674"/>
<path d="M48.7863 20.0208C48.8472 27.5733 48.9081 28.8726 49.2126 29.9283C50.4105 33.9685 52.664 36.1002 56.5823 36.8514C60.2367 37.5417 63.8099 36.892 65.9619 35.1663L66.4491 34.7603L65.8401 33.6639C65.4949 33.0549 64.9468 32.0601 64.5813 31.4307L63.952 30.2735L62.876 30.6998C60.5209 31.6134 57.5974 31.045 56.5417 29.4411C55.7702 28.2838 55.6281 26.5988 55.6281 18.7012V11.3518H52.1564H48.7051L48.7863 20.0208Z" fill="#2B3674"/>
<path d="M67.6064 24.1419V36.9323L71.1187 36.8917L74.6107 36.8308L74.6716 24.081L74.7122 11.3515H71.1593H67.6064V24.1419Z" fill="#2B3674"/>
<path d="M117.346 15.4513C117.793 16.2634 118.503 17.5425 118.93 18.2936L119.681 19.6742H121.569H123.437V16.8319V13.9896H119.985H116.514L117.346 15.4513Z" fill="#2B3674"/>
</svg>
