<svg width="32" height="21" viewBox="0 0 32 21" fill="none" xmlns="http://www.w3.org/2000/svg">
<path d="M21.7493 0.148261H2.31346C1.03781 0.148261 0 1.36681 0 2.86491V17.4327C0 18.9301 1.03781 20.1479 2.31346 20.1479H21.7493C23.0256 20.1479 24.0637 18.9301 24.0637 17.4327V15.0199L31.025 20.0372C31.1278 20.1105 31.2438 20.1479 31.36 20.1479C31.4675 20.1479 31.5753 20.1164 31.6725 20.0526C31.8747 19.9198 32 19.6689 32 19.3967V0.899477C32 0.627319 31.8747 0.376392 31.6725 0.243591C31.4703 0.110068 31.2225 0.117406 31.025 0.258988L24.0637 5.27686V2.86491C24.0637 1.36681 23.0256 0.148261 21.7493 0.148261ZM22.7837 6.61901L22.7833 6.62039V13.6765L22.7837 13.6779V17.4327C22.7837 18.1011 22.3196 18.6455 21.7493 18.6455H2.31346C1.74378 18.6455 1.28001 18.1011 1.28001 17.4327V15.4739H10.5654C10.9188 15.4739 11.2054 15.138 11.2054 14.7227V5.57494C11.2054 5.1597 10.9188 4.82373 10.5654 4.82373H1.28001V2.86491C1.28001 2.19507 1.74378 1.65075 2.31346 1.65075H21.7493C22.3196 1.65075 22.7837 2.19507 22.7837 2.86491V6.61901ZM1.28032 13.9715V6.32622H9.9254V13.9715H1.28032ZM30.72 2.24204V18.0542L24.0637 13.2564V7.04051L30.72 2.24204Z" fill="white"/>
</svg>
