<svg width="22" height="23" viewBox="0 0 22 23" fill="none" xmlns="http://www.w3.org/2000/svg">
<path d="M16.6238 12.0709C16.4339 11.9092 16.1561 11.9022 15.9557 12.0569L13.8918 13.6637C12.8827 13.3051 9.07135 11.7264 8.15718 7.96071L9.74994 5.71397C9.89058 5.51356 9.87652 5.24634 9.71478 5.06351L5.44633 0.179748C5.27404 -0.0171497 4.97869 -0.0593421 4.75718 0.088331L0.235574 3.0875C0.0879007 3.18595 0 3.3512 0 3.527C0 3.69226 0.0386762 7.6056 2.25026 11.867C4.29658 15.8085 8.65997 20.7731 17.8368 22.0389C17.8614 22.0424 17.886 22.0424 17.9106 22.0424C18.0864 22.0424 18.2517 21.9545 18.3501 21.8068L21.6025 16.9266C21.7501 16.7051 21.7079 16.4062 21.5075 16.2339L16.6238 12.0709ZM17.654 20.9489C10.8364 19.9328 5.97725 16.7262 3.20662 11.424C1.42399 8.00994 1.1181 4.75761 1.06536 3.80477L4.9576 1.22401L8.64942 5.44324L7.16215 7.54231C7.07776 7.66185 7.04612 7.81304 7.07776 7.95368C8.14663 13.0871 13.6211 14.6904 13.8531 14.7572C14.0149 14.8029 14.1872 14.7677 14.3208 14.6658L16.2687 13.1504L20.4633 16.7332L17.654 20.9489Z" fill="white"/>
</svg>
