<svg width="37" height="28" viewBox="0 0 37 28" fill="none" xmlns="http://www.w3.org/2000/svg">
<path d="M12.0315 6.49132H35.1395C35.6617 6.49132 36.1081 6.04494 36.1081 5.52266C36.1081 5.00039 35.6617 4.554 35.1395 4.554H12.0315C11.5092 4.554 11.0628 5.00039 11.0628 5.52266C11.0628 6.04494 11.5092 6.49132 12.0315 6.49132Z" fill="white" stroke="white" stroke-width="0.1"/>
<path d="M1.21994 6.49132H4.82394C5.41939 6.49132 5.7926 6.04235 5.7926 5.52266C5.7926 5.00039 5.34622 4.554 4.82394 4.554H1.21994C0.697656 4.554 0.25127 5.00039 0.25127 5.52266C0.25127 6.04494 0.697656 6.49132 1.21994 6.49132Z" fill="white" stroke="white" stroke-width="0.1"/>
<path d="M29.061 15.1832H35.1383C35.6606 15.1832 36.107 14.7368 36.107 14.2146C36.107 13.6923 35.6606 13.2459 35.1383 13.2459H29.061C28.5387 13.2459 28.0923 13.6923 28.0923 14.2146C28.0923 14.7368 28.5387 15.1832 29.061 15.1832Z" fill="white" stroke="white" stroke-width="0.1"/>
<path d="M1.21994 15.1832H21.8546C22.3769 15.1832 22.8233 14.7368 22.8233 14.2146C22.8233 13.6923 22.3769 13.2459 21.8546 13.2459H1.21994C0.697656 13.2459 0.25127 13.6923 0.25127 14.2146C0.25127 14.7368 0.697656 15.1832 1.21994 15.1832Z" fill="white" stroke="white" stroke-width="0.1"/>
<path d="M12.0315 23.9459H35.1395C35.6617 23.9459 36.1081 23.4995 36.1081 22.9773C36.1081 22.455 35.6617 22.0086 35.1395 22.0086H12.0315C11.5092 22.0086 11.0628 22.455 11.0628 22.9773C11.0628 23.4995 11.5092 23.9459 12.0315 23.9459Z" fill="white" stroke="white" stroke-width="0.1"/>
<path d="M1.21994 23.9458H4.82394C5.41459 23.9458 5.86551 23.5005 5.7926 22.9033C5.79082 22.3824 5.34518 21.9378 4.82394 21.9378H1.21994C0.69527 21.9378 0.25127 22.3866 0.25127 22.9771C0.25127 23.4994 0.697656 23.9458 1.21994 23.9458Z" fill="white" stroke="white" stroke-width="0.1"/>
<path d="M3.85503 5.52261C3.85503 8.02353 5.92675 10.0952 8.4277 10.0952C10.9998 10.0952 13.0004 8.02302 13.0004 5.52261C13.0004 3.0217 10.9286 0.95 8.4277 0.95C5.92675 0.95 3.85503 3.0217 3.85503 5.52261ZM5.79236 5.52261C5.79236 4.06625 6.97131 2.88731 8.4277 2.88731C9.88408 2.88731 11.063 4.06625 11.063 5.52261C11.063 6.97898 9.88408 8.15792 8.4277 8.15792C6.97131 8.15792 5.79236 6.97898 5.79236 5.52261Z" fill="white" stroke="white" stroke-width="0.1"/>
<path d="M20.8851 14.2145C20.8851 16.7154 22.9568 18.7871 25.4577 18.7871C28.0298 18.7871 30.0304 16.7149 30.0304 14.2145C30.0304 11.7136 27.9587 9.64189 25.4577 9.64189C22.9568 9.64189 20.8851 11.7136 20.8851 14.2145ZM22.8224 14.2145C22.8224 12.7581 24.0013 11.5792 25.4577 11.5792C26.9141 11.5792 28.0931 12.7581 28.0931 14.2145C28.0931 15.6709 26.9141 16.8498 25.4577 16.8498C24.0013 16.8498 22.8224 15.6709 22.8224 14.2145Z" fill="white" stroke="white" stroke-width="0.1"/>
<path d="M3.85503 22.9772C3.85503 25.4781 5.92675 27.5498 8.42769 27.5498C10.9982 27.5498 13.0714 25.479 13.0004 22.9765C13 20.4759 10.9284 18.4046 8.42769 18.4046C5.92726 18.4046 3.85503 20.4051 3.85503 22.9772ZM5.79236 22.9772C5.79236 21.5208 6.97131 20.3419 8.42769 20.3419C9.88408 20.3419 11.063 21.5208 11.063 22.9772C11.063 24.4336 9.88408 25.6125 8.42769 25.6125C6.97131 25.6125 5.79236 24.4336 5.79236 22.9772Z" fill="white" stroke="white" stroke-width="0.1"/>
</svg>
